<?xml version="1.0" standalone="no"?>
<!DOCTYPE svg PUBLIC "-//W3C//DTD SVG 20010904//EN"
 "http://www.w3.org/TR/2001/REC-SVG-20010904/DTD/svg10.dtd">
<svg version="1.0" xmlns="http://www.w3.org/2000/svg"
 width="1024.000000pt" height="1024.000000pt" viewBox="0 0 1024.000000 1024.000000"
 preserveAspectRatio="xMidYMid meet">

<g transform="translate(0.000000,1024.000000) scale(0.100000,-0.100000)"
fill="#000000" stroke="none">
<path d="M7355 8900 c-11 -5 -33 -6 -50 -4 -21 4 -47 -4 -89 -26 -32 -17 -288
-109 -570 -205 -1173 -397 -1318 -445 -1354 -445 -13 0 -35 -9 -50 -20 -15
-10 -164 -65 -332 -121 -598 -199 -726 -247 -1232 -468 -103 -44 -194 -81
-203 -81 -9 0 -33 -9 -53 -20 -20 -10 -46 -22 -57 -26 -16 -5 -17 -7 -5 -12
65 -23 64 -22 45 -36 -15 -11 -6 -14 66 -19 46 -4 113 -7 149 -7 101 0 138 -9
142 -33 5 -32 28 -33 28 -1 l0 27 93 -7 c50 -3 164 -10 252 -16 88 -5 228 -14
310 -20 83 -5 218 -14 300 -20 83 -5 231 -14 330 -20 99 -5 204 -12 233 -16
l52 -5 0 -75 0 -74 53 0 52 0 2 -331 c1 -239 5 -335 14 -345 6 -8 14 -12 17
-9 3 3 12 -1 21 -8 14 -11 14 -10 2 6 -7 9 -20 17 -28 17 -10 0 -13 6 -9 16 3
9 6 159 6 335 l0 319 45 0 45 0 0 76 0 76 158 -7 c178 -8 175 -8 182 -16 5 -6
597 -39 697 -39 33 0 43 -4 48 -20 8 -25 42 -26 49 -2 5 15 17 16 123 11 65
-4 119 -7 121 -8 1 0 2 -12 2 -25 0 -13 7 -27 16 -30 9 -3 67 -6 130 -6 l114
0 0 -40 c0 -23 6 -53 14 -68 11 -23 14 -338 17 -1934 4 -1809 5 -1908 22
-1908 15 0 17 10 17 80 l0 80 40 0 40 0 0 -95 0 -94 73 -3 c56 -2 72 -6 72
-18 0 -11 -15 -16 -62 -18 l-63 -3 -2 -82 c-1 -45 -2 -97 -3 -115 0 -24 -4
-32 -18 -32 -10 0 -15 -4 -12 -10 3 -5 36 -11 73 -12 47 -1 55 -3 25 -5 -72
-7 -60 -49 14 -51 25 0 33 4 36 21 2 12 5 -98 6 -245 1 -256 2 -268 20 -268
10 0 21 7 25 15 3 8 6 132 6 275 l1 260 28 0 c25 0 30 -5 40 -44 6 -24 14 -75
17 -115 4 -40 12 -71 18 -72 6 -1 23 0 37 0 18 2 28 -5 37 -23 10 -24 9 -26
-11 -27 -17 -1 -18 -2 -4 -6 9 -2 17 -10 17 -16 0 -9 2 -9 8 0 5 7 19 -19 36
-68 16 -44 30 -78 32 -76 2 2 -7 37 -21 77 -14 40 -25 76 -25 79 0 3 11 6 25
6 22 0 28 -7 42 -52 26 -81 27 -55 2 30 -13 42 -21 78 -18 80 2 2 16 7 32 11
23 5 27 3 27 -14 0 -21 33 -29 45 -10 11 18 -16 40 -49 40 -28 0 -32 4 -34 29
-1 17 -11 58 -22 93 -11 35 -20 65 -20 68 0 3 34 4 77 2 l76 -4 -6 77 c-4 43
-7 102 -7 131 l0 53 -137 3 c-122 3 -138 5 -141 21 -3 15 8 17 132 17 l136 0
0 62 0 61 276 -6 c152 -3 279 -8 282 -12 4 -3 9 -43 13 -88 3 -45 7 -69 7 -54
1 16 6 26 11 23 5 -4 11 -1 13 5 2 7 44 11 113 11 79 1 96 3 60 7 l-50 7 44 5
c32 3 49 0 66 -13 19 -15 24 -15 28 -3 4 9 1 12 -7 9 -7 -3 -16 2 -19 10 -4 9
-3 15 1 15 19 -3 33 2 28 10 -3 5 3 11 14 14 12 3 20 0 20 -6 -1 -17 -46 -88
-52 -82 -2 3 -5 -1 -5 -8 0 -6 -35 -69 -79 -138 -43 -70 -92 -149 -108 -175
-19 -32 -31 -44 -34 -34 -6 16 -33 -70 -35 -112 -1 -16 -21 -49 -48 -80 -47
-55 -102 -135 -133 -196 -17 -32 -16 -33 1 -24 25 14 45 38 76 92 15 25 40 59
56 76 17 18 27 34 25 37 -3 3 -1 14 6 24 10 16 10 16 5 -4 -5 -20 -2 -23 19
-23 22 0 26 4 26 31 0 17 -4 28 -10 24 -5 -3 -10 -2 -10 4 0 5 3 11 8 13 4 1
20 28 36 58 54 101 249 391 256 379 4 -6 10 5 13 25 3 20 24 61 46 92 23 32
41 62 41 68 0 6 -8 -2 -19 -19 -43 -71 -134 -190 -143 -187 -5 1 -7 -2 -4 -7
8 -12 -4 -42 -13 -36 -4 2 -8 -1 -8 -8 0 -23 -106 -178 -115 -169 -11 11 151
271 167 269 5 -1 9 7 10 18 0 11 5 19 12 18 7 -2 17 6 23 17 6 11 8 20 5 20
-9 0 32 75 49 89 9 7 23 11 31 7 13 -5 15 -65 15 -476 0 -369 -3 -470 -12
-470 -7 0 -5 -5 5 -11 14 -8 17 -25 17 -94 0 -69 3 -85 15 -85 12 0 15 16 15
86 l0 85 28 -3 27 -3 3 -122 c2 -100 5 -123 17 -123 13 0 15 80 15 610 0 536
2 610 15 610 20 0 19 19 0 26 -13 5 -15 31 -14 161 1 94 -3 159 -9 165 -22 22
-32 -5 -32 -90 -1 -77 -3 -90 -25 -117 l-25 -30 0 123 c0 99 -3 122 -14 122
-8 0 -17 -4 -20 -8 -3 -5 -6 -80 -7 -168 -1 -87 -4 -153 -6 -147 -3 10 -10 10
-24 2 -44 -23 -52 -10 -50 81 1 47 4 111 8 143 l6 57 -105 0 c-58 0 -147 -3
-198 -7 l-93 -6 7 -138 7 -138 -284 -1 -285 0 -7 130 -7 130 -84 0 -84 0 0 40
0 40 -98 0 c-57 0 -103 5 -109 11 -7 7 -22 8 -47 0 -46 -12 -100 5 -157 50
-38 30 -39 32 -23 50 9 10 50 40 90 66 41 26 74 53 74 60 0 7 -11 1 -25 -13
l-25 -25 -33 21 c-25 17 -28 18 -10 2 l21 -19 -54 -36 -54 -37 0 82 0 81 27
-24 26 -24 -19 27 c-10 15 -22 28 -26 28 -9 0 -11 30 -3 30 3 0 44 -16 91 -35
47 -19 81 -28 74 -21 -8 11 -8 15 2 20 7 3 1 3 -15 1 -15 -2 -25 0 -22 6 4 5
1 9 -6 9 -7 0 -10 2 -8 5 3 2 23 -1 45 -7 21 -6 33 -13 26 -15 -6 -3 -9 -10
-5 -16 4 -7 8 -30 9 -52 1 -22 2 -50 3 -62 1 -28 31 -31 31 -4 0 11 8 22 18
24 16 4 16 5 0 6 -22 1 -23 15 -2 35 8 9 11 16 5 16 -6 0 -11 13 -11 29 0 28
3 30 45 37 63 9 64 20 2 16 l-52 -4 -2 56 c-2 30 2 58 7 61 6 4 7 12 3 18 -4
6 -8 26 -10 44 -3 28 0 33 19 34 13 1 55 3 94 5 l71 3 5 -95 c3 -52 10 -100
17 -107 8 -8 11 383 11 1503 0 1333 2 1515 15 1523 9 5 15 23 15 48 l0 39 168
-6 c92 -4 169 -8 171 -10 2 -2 -2 -17 -9 -34 -9 -23 -10 -37 -1 -57 8 -20 11
-212 9 -683 l-3 -655 -23 -3 c-22 -3 -23 -5 -20 -130 l3 -127 70 0 70 0 3 128
3 127 -26 0 -26 0 2 718 1 717 184 -3 c167 -3 184 -2 184 14 0 15 17 16 215 9
l215 -7 -1 94 c0 51 -5 102 -10 113 -6 14 -8 4 -4 -33 l6 -53 -168 6 c-92 3
-185 8 -205 10 l-37 5 -4 -52 c-2 -29 -5 10 -7 87 -2 77 -2 158 -1 181 l2 41
-77 6 c-42 4 -137 7 -209 7 l-133 0 -80 148 c-120 221 -410 775 -450 859 -33
71 -34 74 -17 93 21 23 41 26 52 7 18 -30 1139 -1107 1179 -1133 13 -9 28 -14
34 -12 6 2 -100 109 -237 238 -276 262 -786 754 -934 900 -68 67 -99 105 -104
128 -5 25 -11 32 -24 27 -22 -7 -44 17 -65 70 -9 21 -22 43 -29 47 -16 10 -56
9 -82 -2z m50 -41 c10 -14 1 -21 -19 -13 -9 3 -13 10 -10 15 7 12 21 11 29 -2z
m-124 -45 c10 -9 33 -17 51 -19 55 -4 41 -19 -50 -52 -48 -17 -199 -75 -337
-128 -347 -134 -988 -375 -1304 -490 -202 -73 -266 -92 -273 -83 -17 27 -49
122 -44 133 2 7 64 31 138 55 73 23 138 46 144 51 7 5 319 113 695 241 1025
346 947 322 980 292z m25 -130 c0 -35 -11 -46 -220 -238 -263 -239 -328 -300
-595 -556 -112 -107 -215 -201 -230 -209 -14 -8 -38 -27 -53 -43 -23 -25 -33
-28 -85 -28 -97 0 -804 38 -1323 70 -85 5 -175 10 -200 10 l-45 1 35 13 c19 8
51 23 70 34 19 11 123 51 230 90 240 86 240 86 240 73 0 -18 29 -12 39 8 13
23 144 78 149 62 6 -17 42 -13 49 4 8 23 38 36 313 135 236 85 542 201 1260
475 293 111 350 133 361 134 3 1 5 -15 5 -35z m119 -34 c14 -21 142 -279 285
-572 l260 -532 0 -134 0 -134 -22 6 c-13 3 -51 6 -85 6 -44 0 -63 4 -63 13 0
6 -51 46 -112 87 -62 41 -127 90 -146 108 l-34 34 -191 9 c-106 5 -311 15
-457 23 -146 9 -328 18 -405 21 -183 8 -207 12 -203 33 2 9 11 16 20 16 10 -1
18 9 21 25 6 28 103 122 721 695 226 209 315 286 333 286 16 0 27 8 33 25 5
14 12 25 15 25 2 0 16 -18 30 -40z m-2141 -499 c17 -19 59 -122 52 -129 -2 -2
-37 -16 -77 -32 -54 -21 -75 -25 -77 -16 -2 11 50 165 64 187 8 14 19 11 38
-10z m-67 -13 c-3 -7 -20 -49 -37 -93 -18 -44 -37 -85 -43 -92 -15 -14 -417
-164 -529 -196 -47 -14 -99 -33 -114 -44 -17 -10 -47 -18 -74 -18 -44 -1 -367
-84 -485 -125 -48 -17 -205 -61 -250 -70 -5 -1 -53 -2 -105 -1 l-95 1 55 24
c30 12 156 67 280 121 124 53 288 122 365 153 142 56 999 350 1024 351 7 1 11
-5 8 -11z m-702 -492 c-17 -12 -30 -46 -18 -46 3 0 18 9 35 21 63 45 44 -10
-30 -85 -50 -51 -61 -55 -85 -28 -16 17 -15 20 14 41 23 17 28 26 20 34 -8 8
-16 6 -29 -7 -9 -11 -11 -15 -3 -11 10 6 12 4 7 -4 -4 -6 -12 -9 -17 -5 -5 3
-16 0 -24 -6 -12 -10 -22 -5 -52 24 -53 50 -65 45 -14 -6 l41 -42 -20 -21 -21
-20 -37 21 c-27 16 -39 31 -44 55 -4 19 -3 38 2 43 17 17 175 55 234 55 53 1
58 -1 41 -13z m304 -2 l63 -6 -43 -45 c-24 -24 -56 -53 -71 -64 l-28 -20 -65
68 c-35 37 -65 70 -65 73 0 6 109 3 209 -6z m111 -99 l0 -94 -35 -7 c-19 -3
-35 -10 -35 -14 0 -5 14 -5 31 0 23 7 31 5 35 -5 11 -28 -1 -32 -49 -20 -58
15 -68 23 -42 37 30 17 85 74 85 89 0 7 -12 -1 -27 -18 -16 -17 -42 -39 -60
-49 -31 -17 -33 -17 -53 1 -11 10 -20 21 -20 26 0 7 157 149 165 149 3 0 5
-43 5 -95z m238 77 l43 -7 -56 -55 -55 -55 -63 63 -62 62 75 -1 c41 0 94 -4
118 -7z m-470 -101 c18 -18 32 -34 30 -35 -13 -8 -78 -26 -91 -26 -13 0 -17 9
-17 34 0 18 -3 55 -7 82 l-6 49 28 -35 c16 -19 44 -50 63 -69z m356 -9 c21
-23 37 -44 35 -45 -19 -14 -66 -27 -94 -27 l-35 0 0 93 0 92 28 -35 c15 -19
44 -54 66 -78z m196 13 l0 -95 -39 0 c-28 0 -49 8 -71 27 l-31 26 67 69 c38
37 70 68 71 68 2 0 3 -43 3 -95z m213 79 l79 -6 -54 -48 c-29 -27 -55 -49 -58
-49 -3 0 -34 26 -69 58 l-63 59 43 -4 c24 -2 79 -6 122 -10z m-1278 -3 c-13
-12 -212 -64 -227 -59 -6 2 35 18 93 35 109 32 150 40 134 24z m1270 -161 l30
-23 -34 7 c-18 3 -40 6 -48 6 -9 0 -11 5 -7 13 6 9 5 9 -7 0 -8 -6 -30 -12
-49 -13 -74 -4 -70 -9 -67 90 l2 89 75 -73 c41 -40 89 -83 105 -96z m-869 95
c0 -48 -3 -64 -12 -61 -7 3 -10 -2 -7 -15 3 -10 9 -16 14 -13 5 3 9 -2 9 -10
0 -20 -29 -21 -36 -2 -3 8 -19 20 -35 26 -16 7 -29 17 -29 22 0 7 89 118 94
118 1 0 1 -29 2 -65z m1108 21 c33 -24 65 -44 69 -44 5 0 14 -8 21 -18 8 -11
18 -14 26 -9 8 5 11 4 6 -3 -3 -6 4 -18 16 -26 33 -23 48 -19 18 4 l-25 20 28
-10 c55 -19 41 -9 -48 38 -105 55 -135 74 -135 84 0 7 47 5 198 -8 l62 -6 -2
-94 c-2 -84 -4 -94 -20 -94 -49 0 -122 48 -243 159 -69 62 -54 66 29 7z m-132
-58 c-2 -59 -7 -88 -15 -88 -7 0 -33 16 -60 35 l-47 35 61 55 c34 31 62 54 63
53 1 -2 0 -42 -2 -90z m121 19 c6 3 7 1 4 -4 -8 -12 40 -57 97 -92 20 -13 35
-26 32 -29 -3 -3 4 -10 16 -16 31 -16 36 -38 6 -32 -12 3 -75 8 -139 11 -111
7 -116 8 -111 27 5 20 10 21 111 15 63 -3 98 -2 86 3 -11 5 -59 9 -107 9 l-88
1 0 86 0 86 41 -36 c23 -19 46 -33 52 -29z m432 53 l29 0 -21 -21 -22 -22 -33
28 c-30 26 -31 28 -8 22 14 -4 38 -7 55 -7z m-1917 -22 c2 -8 -3 -15 -10 -16
-7 -1 -51 -4 -98 -7 -90 -6 -86 7 5 19 28 4 57 11 65 16 19 12 34 7 38 -12z
m1792 -68 c0 -83 -1 -90 -20 -90 -24 0 -27 28 -4 37 14 5 14 7 2 14 -10 5 -15
26 -16 60 -1 58 3 69 24 69 11 0 14 -18 14 -90z m368 -12 l3 -88 -48 0 c-28 0
-58 7 -71 16 -22 15 -22 15 43 81 36 37 63 69 60 71 -2 3 -34 -23 -70 -57
l-66 -61 -27 19 c-15 10 -38 31 -52 45 l-24 27 27 22 c26 20 36 22 125 17 l97
-5 3 -87z m-284 30 c-3 -4 -16 -8 -29 -8 -20 0 -23 5 -23 36 l0 36 29 -28 c15
-15 26 -31 23 -36z m581 43 c5 -1 -8 -16 -30 -33 -22 -18 -50 -42 -62 -54
l-21 -21 -58 53 c-32 30 -61 54 -66 54 -4 0 -8 3 -8 8 0 5 157 1 245 -7z m-95
-183 c0 -4 -17 -8 -37 -8 l-38 0 25 21 c20 17 21 19 5 14 -11 -4 -41 -10 -67
-12 -54 -6 -48 -20 -51 111 l-2 58 83 -88 c45 -48 82 -91 82 -96z m463 163
c26 -1 22 -6 -52 -68 -72 -59 -93 -83 -76 -83 3 0 43 31 88 70 85 73 97 79 97
56 0 -20 -132 -146 -153 -146 -9 0 -58 41 -107 91 -50 50 -90 92 -90 93 0 0
60 -2 132 -5 73 -4 146 -7 161 -8z m-343 -81 l0 -90 -30 0 c-19 0 -42 11 -62
29 l-33 30 60 60 c33 34 61 61 62 61 2 0 3 -40 3 -90z m134 -28 l71 -73 -50 5
c-27 2 -67 5 -87 5 l-38 1 0 92 c0 89 1 92 16 68 9 -14 49 -58 88 -98z m-2394
66 c0 -10 -42 -10 -65 -2 -15 6 -15 8 1 25 15 17 18 17 40 1 13 -9 24 -20 24
-24z m-433 21 c83 -9 113 -16 113 -25 0 -16 -82 -17 -230 -5 l-85 7 35 17 c43
20 30 19 167 6z m3218 -34 c33 -24 82 -59 108 -77 44 -29 47 -33 31 -45 -10
-7 -23 -13 -30 -13 -6 0 -54 40 -105 90 -100 95 -102 117 -4 45z m236 23 c5
-7 9 -49 8 -93 0 -76 -1 -79 -16 -57 -8 12 -23 22 -32 22 -9 0 -25 7 -35 15
-10 8 -23 12 -29 8 -6 -3 -7 -1 -4 4 6 9 -63 61 -148 112 -16 10 6 11 114 7
95 -3 136 -8 142 -18z m-3233 -16 c3 -18 -2 -22 -22 -22 -24 0 -25 2 -14 25
13 30 32 28 36 -3z m87 -23 c-4 -5 -17 -9 -31 -9 -20 0 -24 5 -24 31 l0 30 30
-21 c17 -12 28 -26 25 -31z m1921 -61 c6 -10 -167 -10 -181 0 -5 4 -10 23 -10
42 0 30 4 35 25 38 14 2 29 8 34 12 8 8 118 -69 132 -92z m1326 30 c23 -34 53
-73 67 -86 l25 -23 -64 4 -64 3 -13 50 c-15 58 -17 114 -3 114 5 0 28 -28 52
-62z m-3078 41 c-3 -5 10 -13 28 -18 31 -9 31 -9 6 -10 -14 -1 -33 2 -42 5
-20 8 -21 31 -1 31 8 0 12 -4 9 -8z m242 -4 c-23 -17 -36 -19 -36 -6 0 5 10
12 23 14 12 2 24 5 27 5 3 1 -4 -5 -14 -13z m69 -43 c-21 -2 -49 -1 -63 3
l-26 6 29 23 29 24 35 -27 35 -26 -39 -3z m2485 -69 c12 -11 2 -13 -63 -13
l-77 0 0 72 0 71 63 -58 c34 -32 69 -64 77 -72z m-2920 107 c0 -5 -4 -10 -10
-10 -5 0 -10 5 -10 10 0 6 5 10 10 10 6 0 10 -4 10 -10z m828 -65 c-3 -3 -51
-2 -107 1 -86 6 -101 10 -99 23 3 12 16 16 53 17 70 1 93 4 76 11 -11 4 -11 7
0 13 13 9 88 -54 77 -65z m1912 10 l0 -65 -35 3 c-26 1 -35 7 -35 20 0 9 -4
17 -10 17 -5 0 -10 -9 -10 -20 0 -20 -11 -26 -23 -14 -5 5 100 123 111 124 1
0 2 -29 2 -65z m-2693 49 c-3 -3 -12 -4 -19 -1 -8 3 -5 6 6 6 11 1 17 -2 13
-5z m-544 -11 c-7 -2 -21 -2 -30 0 -10 3 -4 5 12 5 17 0 24 -2 18 -5z m821 -2
c3 -5 -5 -11 -19 -13 -17 -4 -25 -1 -25 8 0 15 36 19 44 5z m3064 -122 c2 -5
-17 -9 -42 -9 -30 0 -46 4 -46 13 0 6 -18 35 -40 62 -22 28 -40 53 -40 57 0
10 164 -111 168 -123z m-3721 105 c-3 -3 -12 -4 -19 -1 -8 3 -5 6 6 6 11 1 17
-2 13 -5z m1241 -10 c26 -8 11 -24 -23 -24 -19 0 -35 2 -35 4 0 2 -3 12 -6 21
-5 13 -2 15 22 10 16 -4 35 -8 42 -11z m271 -5 c23 -7 41 -17 41 -23 0 -8 -42
-9 -142 -5 -79 4 -144 7 -145 8 -2 0 -3 7 -3 15 0 27 166 30 249 5z m-1056
-16 c-24 -2 -62 -2 -85 0 -24 2 -5 4 42 4 47 0 66 -2 43 -4z m205 -10 c-21 -2
-57 -2 -80 0 -24 2 -7 4 37 4 44 0 63 -2 43 -4z m1255 -2 c4 -1 7 -5 7 -11 0
-16 -40 -12 -57 6 -14 14 -13 15 13 10 16 -2 32 -5 37 -5z m-1110 -8 c-13 -2
-33 -2 -45 0 -13 2 -3 4 22 4 25 0 35 -2 23 -4z m1181 -8 c4 -10 -1 -15 -14
-15 -11 0 -20 7 -20 15 0 8 6 15 14 15 8 0 16 -7 20 -15z m289 -4 c10 -7 17
-17 17 -21 0 -5 -44 -6 -97 -4 -149 7 -183 13 -183 31 0 13 17 15 123 12 86
-3 129 -8 140 -18z m-993 -15 c196 -16 314 -32 247 -35 -15 -1 -92 5 -170 13
-122 13 -207 20 -467 40 -25 2 7 2 70 1 63 -2 207 -10 320 -19z m1060 -3 c0
-20 -34 -12 -38 9 -2 12 2 15 17 11 12 -3 21 -12 21 -20z m323 -2 c4 -1 7 -7
7 -15 0 -11 -24 -13 -132 -9 -73 3 -135 7 -137 9 -2 2 -1 9 1 16 4 10 32 12
129 6 68 -3 127 -7 132 -7z m234 -25 c18 -18 16 -18 -61 -12 -43 3 -92 6 -108
6 -19 0 -28 5 -28 16 0 25 172 17 197 -10z m177 -2 c5 -12 -1 -15 -26 -12 -42
4 -50 28 -10 28 18 0 32 -6 36 -16z m226 1 c8 -5 8 -11 2 -17 -15 -15 -192 1
-192 18 0 11 19 13 89 10 49 -2 95 -7 101 -11z m-337 -2 c-7 -2 -19 -2 -25 0
-7 3 -2 5 12 5 14 0 19 -2 13 -5z m-1410 -37 c4 -6 6 -31 5 -56 l-3 -45 -97
-3 -98 -3 0 66 0 65 93 -7 c50 -3 95 -11 100 -17z m2595 -229 c3 -23 0 -27
-23 -27 -30 0 -43 24 -25 46 19 22 45 13 48 -19z m-678 -27 c0 -6 -38 -10 -95
-10 -57 0 -95 4 -95 10 0 6 38 10 95 10 57 0 95 -4 95 -10z m220 -7 c0 -5 -28
-7 -62 -5 -113 5 -125 9 -30 10 50 1 92 -1 92 -5z m444 -680 l-9 -658 -5 660
c-3 363 -3 664 -1 668 2 5 8 4 13 -1 7 -7 7 -231 2 -669z m-714 643 c0 -2 -31
-27 -70 -55 l-70 -51 0 55 0 55 70 0 c39 0 70 -2 70 -4z m270 -56 l0 -61 -62
52 c-35 28 -67 55 -72 60 -6 5 20 9 62 9 l72 0 0 -60z m-218 23 c6 -97 9 -90
-40 -97 -68 -9 -144 -7 -140 4 3 10 159 120 171 120 4 0 8 -12 9 -27z m110
-20 c33 -27 70 -56 81 -65 21 -17 19 -17 -65 -18 l-88 0 0 65 c0 36 3 65 6 65
4 0 33 -21 66 -47z m-102 -168 l0 -55 -77 39 c-133 67 -134 70 -20 71 l97 0 0
-55z m190 41 c-14 -12 -147 -86 -156 -86 -2 0 -4 23 -4 50 l0 50 87 0 c74 0
85 -2 73 -14z m-276 -80 c62 -33 65 -36 44 -47 -12 -6 -52 -33 -89 -59 l-66
-48 -5 71 c-3 40 -3 89 0 110 4 37 5 37 27 23 12 -8 52 -31 89 -50z m305 -76
c1 -72 -9 -78 -64 -37 -26 20 -64 44 -86 54 -21 10 -39 20 -39 23 0 4 15 11
33 18 18 6 57 27 87 46 l55 35 7 -47 c3 -26 7 -67 7 -92z m-219 -45 l0 -65
-96 0 c-55 0 -94 4 -92 9 3 11 168 121 181 121 4 0 7 -29 7 -65z m122 17 c7 2
12 -3 11 -9 -2 -7 10 -19 25 -27 16 -8 34 -22 41 -30 12 -14 4 -16 -78 -16
l-91 0 0 65 0 65 40 -25 c22 -14 45 -24 52 -23z m-132 -126 c0 -16 -97 -33
-125 -22 -8 3 -15 0 -15 -6 0 -7 21 -9 66 -5 l66 6 -38 -30 c-36 -29 -59 -33
-59 -11 0 5 -4 14 -9 19 -6 5 -6 2 -1 -7 14 -25 -22 8 -46 42 l-20 28 90 0
c72 0 91 -3 91 -14z m200 9 c0 -14 -52 -29 -103 -29 -48 -1 -57 2 -57 17 0 15
10 17 80 17 44 0 80 -2 80 -5z m-27 -105 c-27 -25 -68 -55 -91 -68 l-42 -23 0
74 0 74 48 -7 c26 -4 49 -5 52 -1 3 4 20 16 38 26 17 11 33 24 34 30 0 5 3 -6
5 -25 4 -31 0 -40 -44 -80z m-321 -64 l-39 -55 -6 59 c-3 33 -3 77 0 99 l5 38
40 -43 40 -43 -40 -55z m155 47 c-3 -38 -6 -70 -6 -73 -1 -6 -81 73 -81 80 0
9 72 60 83 60 5 0 7 -30 4 -67z m167 -79 c-47 -42 -48 -42 -77 -27 -31 16 -28
25 15 47 12 7 22 18 21 24 -2 6 3 9 10 6 7 -2 26 9 42 27 l30 31 3 -32 c3 -28
-3 -39 -44 -76z m-238 32 c19 -19 34 -37 34 -40 0 -3 -36 -24 -80 -46 l-80
-40 0 30 c0 16 4 30 8 30 4 0 16 14 26 32 20 33 48 68 54 68 2 0 19 -15 38
-34z m284 -81 l0 -66 -39 31 -39 32 37 34 c20 18 37 34 39 34 1 0 2 -29 2 -65z
m-145 11 c8 -7 11 -17 7 -21 -4 -5 -2 -5 4 -2 18 11 146 -65 132 -78 -2 -3
-40 -6 -83 -7 -88 -3 -106 10 -50 36 19 9 35 21 35 26 0 14 -4 13 -43 -10
l-34 -20 1 45 c1 47 8 54 31 31z m-71 -43 c3 -26 2 -51 -3 -56 -23 -23 -181
-4 -181 22 0 4 39 19 86 35 47 15 84 30 82 32 -4 3 -20 -1 -83 -20 -11 -4 -2
3 20 14 62 30 71 27 79 -27z m-76 -78 c92 3 101 -5 56 -50 l-26 -26 -43 36
c-57 47 -65 45 -13 -4 l42 -38 -65 -61 -64 -60 -6 76 c-3 43 -4 91 -1 109 4
27 8 31 21 23 10 -5 54 -7 99 -5z m292 -95 l0 -94 -51 49 c-28 28 -64 67 -80
87 l-30 37 33 9 c18 4 54 8 80 8 l48 -1 0 -95z m-160 44 c0 -8 5 -14 12 -14 6
0 3 -9 -8 -21 l-19 -21 -6 24 c-7 29 0 60 12 52 5 -3 9 -12 9 -20z m-57 -43
c-4 -23 -8 -29 -14 -20 -7 11 -9 10 -9 -3 0 -10 6 -18 14 -18 9 0 14 -14 14
-45 1 -39 -1 -45 -21 -47 -35 -3 -167 -3 -167 0 0 2 23 24 52 50 29 26 70 64
93 84 22 20 40 36 41 35 1 -1 -1 -17 -3 -36z m208 -103 c19 -36 -16 -45 -115
-32 -40 6 -46 10 -46 30 0 13 -4 24 -10 24 -5 0 -10 5 -10 11 0 5 4 8 9 5 5
-3 11 1 14 8 4 9 -1 17 -11 19 -13 4 -12 5 4 6 13 1 24 10 27 22 5 20 10 18
66 -25 34 -26 66 -56 72 -68z m-211 -76 c0 -22 -78 -47 -116 -38 -18 5 -24 3
-18 -5 4 -8 3 -9 -5 -5 -6 4 -9 11 -6 16 3 5 -3 15 -15 22 -11 7 -20 16 -20
20 0 5 41 8 90 8 80 0 90 -2 90 -18z m220 -1 c0 -24 -145 -171 -168 -171 -4 0
-8 27 -9 59 l-2 59 57 6 c32 4 68 15 82 26 l25 19 -40 -14 c-22 -8 -59 -14
-81 -15 -39 0 -41 1 -36 25 4 26 6 26 88 24 70 -1 84 -4 84 -18z m-359 -65
c24 -27 39 -47 32 -43 -6 4 -26 -10 -47 -35 l-36 -42 0 89 c0 49 1 86 3 84 2
-2 23 -26 48 -53z m145 -47 c-3 -29 -8 -54 -10 -56 -3 -3 -24 13 -47 35 -36
33 -41 42 -31 55 10 12 8 14 -13 9 -16 -3 -25 0 -25 8 0 8 11 11 32 8 17 -3
43 1 57 8 34 18 43 1 37 -67z m197 -51 c-10 -11 -30 -29 -45 -39 -26 -19 -27
-19 -59 0 l-33 20 32 18 c18 10 32 24 32 32 0 8 3 11 6 8 4 -4 23 15 43 41
l36 47 3 -54 c2 -40 -1 -58 -15 -73z m-286 23 c-3 -14 -1 -18 9 -14 8 3 26 -6
41 -21 22 -22 23 -26 8 -26 -21 0 -157 -61 -151 -67 2 -2 36 9 76 26 95 41
100 40 100 -9 l0 -40 -89 0 c-97 0 -101 2 -101 62 0 22 9 39 33 60 17 16 37
33 42 38 18 17 38 11 32 -9z m203 -92 c0 -4 -13 -16 -30 -26 -16 -9 -30 -21
-30 -25 0 -13 9 -10 40 14 28 20 31 21 70 5 44 -17 55 -8 15 13 -32 17 -31 22
4 43 l29 17 4 -38 c3 -20 3 -42 1 -48 -2 -6 -33 -14 -69 -17 -36 -2 -76 -12
-91 -22 -24 -16 -26 -16 -20 0 4 9 7 41 7 71 l0 54 35 -17 c19 -9 35 -20 35
-24z m580 -79 l0 -100 -45 0 -45 0 0 100 0 100 45 0 45 0 0 -100z m-712 1 c6
-1 12 -11 12 -24 0 -28 -4 -33 -107 -132 l-83 -78 0 112 0 113 48 -28 c26 -15
54 -32 63 -37 12 -7 23 -5 40 7 l24 17 -27 -6 c-20 -5 -40 0 -72 19 -25 14
-47 30 -50 34 -3 6 60 7 152 3z m239 -117 c3 -69 1 -105 -5 -99 -39 41 -142
175 -142 184 0 6 11 11 25 11 14 0 25 4 25 8 0 4 21 7 47 6 l46 -2 4 -108z
m-157 56 c6 -11 16 -19 23 -17 7 1 11 -4 9 -12 -2 -8 1 -17 5 -20 14 -10 113
-127 113 -133 0 -13 -66 -28 -121 -28 l-59 0 0 55 0 55 60 -47 c33 -25 62 -44
65 -42 2 3 -21 24 -52 48 l-56 43 29 19 c20 13 24 19 12 19 -9 0 -20 -4 -23
-10 -3 -5 -13 -10 -21 -10 -10 0 -14 13 -14 50 0 52 12 64 30 30z m-61 -157
c1 -23 -3 -44 -9 -48 -11 -7 -141 15 -154 26 -5 4 27 41 70 82 l79 75 7 -47
c3 -25 7 -65 7 -88z m-76 -59 c65 -7 67 -8 67 -34 l0 -28 -67 13 c-38 7 -70
11 -72 10 -3 -4 55 -21 107 -31 26 -5 32 -11 32 -33 -1 -40 -18 -63 -110 -143
l-85 -74 3 68 c3 49 7 68 17 68 8 0 17 5 21 11 4 8 0 9 -15 4 -20 -6 -21 -3
-21 67 l1 73 22 -26 c12 -15 34 -38 49 -53 l27 -26 -27 -15 c-22 -11 -23 -14
-8 -15 10 0 25 8 32 18 11 14 13 14 14 2 0 -8 9 -21 19 -27 41 -25 26 1 -36
62 -35 36 -62 69 -59 74 3 5 -1 14 -9 21 -22 18 -18 33 8 27 12 -4 52 -9 90
-13z m265 -18 c-40 -21 -128 -45 -144 -39 -8 3 -14 13 -14 22 0 13 8 17 30 16
16 -1 33 1 39 4 5 3 33 7 63 9 51 2 52 2 26 -12z m31 -61 c1 -46 -1 -55 -16
-56 -17 -1 -17 -2 0 -6 15 -4 17 -17 17 -93 0 -72 -3 -88 -15 -86 -8 1 -18 6
-22 11 -5 4 -1 4 7 0 15 -9 -105 131 -121 141 -26 16 -2 -19 48 -69 31 -31 51
-57 45 -57 -6 0 -14 5 -17 11 -9 14 -86 69 -97 69 -18 0 -7 -18 15 -24 13 -3
53 -33 88 -66 l64 -61 -88 4 c-49 3 -90 6 -92 8 -4 4 -7 98 -6 171 1 40 4 47
19 42 16 -5 16 -5 -1 9 -28 24 -10 44 61 67 37 12 74 26 82 31 25 14 27 11 29
-46z m-228 -142 c2 -18 0 -33 -4 -33 -10 0 -67 -30 -67 -35 0 -2 12 0 26 5 43
17 49 12 51 -35 l2 -45 -100 0 c-95 0 -99 1 -90 19 11 20 171 165 176 159 2
-2 5 -18 6 -35z m7 -220 c1 -23 -1 -43 -4 -43 -5 0 -174 100 -174 103 0 1 40
-2 89 -7 l89 -9 0 -44z m165 29 c-15 -13 -48 -32 -73 -44 -25 -11 -47 -22 -50
-23 -3 -2 -5 18 -6 45 l0 48 78 -2 79 -1 -28 -23z m-314 -4 c20 -12 42 -28 49
-35 7 -7 21 -17 30 -22 15 -9 15 -12 -7 -35 -22 -24 -22 -24 -2 -19 11 3 23
14 26 24 5 16 9 17 26 6 10 -6 19 -17 19 -23 0 -18 -58 -54 -77 -48 -15 5 -16
4 -3 -5 13 -9 13 -11 0 -12 -8 -1 -19 -1 -23 0 -5 1 -6 -3 -2 -9 3 -5 1 -10
-6 -10 -7 0 -27 -11 -46 -26 l-33 -25 0 130 c0 72 3 131 6 131 4 0 23 -10 43
-22z m370 -140 c1 -49 -1 -88 -4 -88 -3 0 -37 27 -77 60 -39 33 -79 60 -90 60
-32 0 -19 19 30 44 26 13 65 37 87 53 l40 30 7 -36 c4 -20 7 -75 7 -123z m-79
-40 c28 -24 24 -22 -18 7 -29 21 -55 36 -57 33 -2 -2 22 -23 55 -47 32 -23 66
-51 76 -62 17 -19 15 -19 -74 -19 l-92 0 0 70 c0 61 2 69 17 63 12 -5 14 -3 8
7 -11 18 41 -14 85 -52z m-140 -29 l0 -59 -95 0 c-52 0 -95 3 -95 8 0 11 173
121 182 116 4 -3 8 -32 8 -65z m180 -97 c-32 -26 -128 -77 -134 -71 -3 3 -8
23 -12 46 l-6 41 65 -5 c37 -3 72 -1 83 5 28 15 30 5 4 -16z m-182 -36 l2 -48
-35 22 c-19 12 -39 19 -44 16 -5 -4 -11 -2 -13 2 -1 5 -21 21 -43 36 l-40 27
85 -4 85 -4 3 -47z m-149 22 c20 -12 45 -31 56 -41 11 -10 29 -23 40 -28 16
-8 15 -6 -4 10 -13 12 -19 21 -14 21 17 0 70 -65 67 -83 -3 -23 -23 -47 -39
-47 -23 0 -155 155 -155 183 0 12 10 8 49 -15z m361 -121 l0 -133 -29 1 c-28
0 -150 63 -151 77 0 4 15 -1 33 -12 68 -41 109 -61 114 -56 3 3 -6 11 -21 17
-33 15 -32 19 6 44 17 11 34 27 36 35 3 9 -5 6 -21 -9 -14 -12 -30 -21 -35
-17 -5 3 -17 -1 -28 -8 -16 -12 -22 -10 -51 13 -25 20 -33 34 -33 58 0 23 4
31 13 27 13 -5 130 67 142 87 18 29 25 -4 25 -124z m-370 43 c19 -25 47 -58
63 -75 27 -27 28 -30 11 -42 -10 -7 -28 -13 -40 -13 -29 0 -38 -14 -20 -30 12
-9 28 -6 75 13 33 13 63 22 66 19 3 -3 5 -29 5 -59 l0 -53 -67 -2 -68 -2 68
-3 67 -4 0 -44 c0 -40 -3 -45 -22 -46 l-23 -2 23 -4 c20 -4 22 -10 22 -65 0
-52 -2 -59 -17 -54 -9 4 -37 11 -62 16 -25 6 -63 15 -83 22 -36 11 -38 13 -38
55 0 23 -5 43 -11 43 -5 0 -7 5 -4 10 4 6 6 95 5 198 0 104 3 182 8 177 5 -6
24 -30 42 -55z m254 -155 c30 -19 60 -35 67 -35 6 0 9 -7 5 -15 -3 -9 0 -15
10 -15 8 0 13 4 10 8 -3 5 1 9 9 9 8 0 15 -6 15 -14 0 -9 -14 -12 -50 -10 -27
1 -50 6 -50 10 0 4 -9 3 -19 -3 -44 -23 -56 -14 -58 45 -2 30 -1 55 2 55 3 0
29 -16 59 -35z m-190 -304 c4 -5 -1 -8 -9 -7 -21 3 -31 16 -12 16 9 0 18 -4
21 -9z m28 -345 c4 -6 9 -15 11 -20 1 -5 16 -8 31 -8 20 0 24 -3 15 -9 -8 -5
-30 -9 -49 -9 -54 0 -64 -11 -56 -62 7 -44 6 -45 -39 -77 l-45 -32 0 26 c0 19
7 28 28 36 15 7 22 13 14 16 -6 3 -9 9 -6 15 4 6 -2 5 -15 -1 -21 -12 -21 -11
-21 92 l0 104 63 -30 c34 -17 65 -35 69 -41z m198 -22 c0 -35 -1 -35 -37 -32
-35 3 -38 6 -41 36 -3 31 -2 32 37 32 40 0 41 -1 41 -36z m78 4 c-2 -25 -8
-34 -25 -36 -18 -3 -23 2 -24 20 0 22 -1 22 -9 3 -7 -17 -9 -15 -9 13 -1 30 1
32 35 32 34 0 35 -1 32 -32z m20 -160 c-1 -145 -6 -132 -10 30 -2 56 0 102 5
102 4 0 6 -60 5 -132z m-120 28 c2 -46 -1 -83 -8 -90 -7 -7 -10 -3 -10 14 0
14 0 34 0 45 0 11 3 39 6 62 5 34 3 42 -13 47 -16 4 -15 5 2 3 18 -2 20 -11
23 -81z m1432 -101 c0 -63 -1 -65 -25 -65 -20 0 -25 5 -25 26 0 20 38 104 48
104 1 0 2 -29 2 -65z m-1650 20 c0 -33 -2 -35 -34 -35 -48 0 -52 14 -14 44 43
34 48 33 48 -9z m217 -57 c-3 -7 -5 -2 -5 12 0 14 2 19 5 13 2 -7 2 -19 0 -25z
m1274 -75 c-6 -10 -15 -25 -21 -33 -9 -13 -10 -12 -8 5 3 17 -4 21 -47 25
l-50 4 65 6 c36 4 66 7 68 8 1 1 -2 -6 -7 -15z m159 -458 l0 -475 -25 0 -25 0
0 468 c0 258 3 472 7 475 3 4 15 7 25 7 17 0 18 -21 18 -475z m-1380 323 c0
-5 -20 -8 -45 -8 -38 0 -45 3 -45 20 0 16 7 20 30 20 17 0 30 5 30 13 1 12 29
-31 30 -45z m38 -265 c-15 -4 -15 -8 -2 -45 8 -23 12 -43 10 -45 -3 -3 -36 82
-36 94 0 2 10 2 23 2 15 -1 17 -3 5 -6z m901 -112 c-44 -74 -65 -90 -32 -24
11 21 28 55 38 76 11 23 22 34 28 28 5 -5 -8 -37 -34 -80z m-826 -8 c21 -51
24 -68 15 -75 -8 -4 -18 -1 -25 9 -10 13 -13 14 -13 2 0 -12 -2 -12 -9 0 -6 9
-6 22 -1 31 5 10 6 21 2 26 -4 5 1 1 11 -9 20 -22 22 -9 5 28 -6 14 -17 24
-23 22 -6 -3 -11 4 -11 14 0 38 22 17 49 -48z m56 -6 c11 -60 -1 -77 -22 -30
-16 34 -16 36 -1 18 16 -19 16 -18 10 25 -9 57 1 48 13 -13z m-142 -40 c-2 -7
0 -20 5 -29 6 -13 5 -16 -5 -13 -7 3 -14 19 -15 36 -2 20 1 28 8 24 6 -4 9
-12 7 -18z m30 -29 c-3 -8 -6 -5 -6 6 -1 11 2 17 5 13 3 -3 4 -12 1 -19z m106
-48 c7 -26 -50 -34 -59 -8 -3 10 -3 22 0 27 9 14 54 0 59 -19z"/>
<path d="M4461 7606 c-9 -10 -9 -16 -1 -21 13 -8 23 0 26 20 3 19 -10 19 -25
1z"/>
<path d="M6726 7445 c-3 -9 0 -15 9 -15 16 0 20 16 6 24 -5 3 -11 -1 -15 -9z"/>
<path d="M7589 6103 c-13 -17 -13 -17 6 -3 11 8 22 16 24 17 2 2 0 3 -6 3 -6
0 -17 -8 -24 -17z"/>
<path d="M7598 5103 c7 -3 16 -2 19 1 4 3 -2 6 -13 5 -11 0 -14 -3 -6 -6z"/>
<path d="M7595 4370 c3 -5 8 -10 11 -10 2 0 4 5 4 10 0 6 -5 10 -11 10 -5 0
-7 -4 -4 -10z"/>
<path d="M7335 4250 c-3 -5 -1 -10 4 -10 6 0 11 5 11 10 0 6 -2 10 -4 10 -3 0
-8 -4 -11 -10z"/>
<path d="M7378 4103 c6 -2 18 -2 25 0 6 3 1 5 -13 5 -14 0 -19 -2 -12 -5z"/>
<path d="M7345 3540 c3 -5 8 -10 11 -10 2 0 4 5 4 10 0 6 -5 10 -11 10 -5 0
-7 -4 -4 -10z"/>
<path d="M8581 7389 l-1 -116 161 -7 c88 -4 162 -6 164 -4 2 2 -5 21 -16 43
l-19 40 3 -32 c2 -18 -1 -34 -7 -36 -14 -5 -254 7 -259 13 -3 3 -9 52 -14 110
l-10 105 -2 -116z"/>
<path d="M8943 7450 c0 -30 2 -43 4 -27 2 15 2 39 0 55 -2 15 -4 2 -4 -28z"/>
<path d="M8626 7445 c-9 -14 -13 -25 -9 -25 5 0 13 8 19 18 10 15 25 17 122
14 111 -3 112 -3 112 -28 0 -16 5 -24 18 -23 10 0 12 3 5 6 -20 7 -16 43 5 44
14 0 14 2 -3 9 -11 5 -72 9 -136 9 -114 1 -117 0 -133 -24z"/>
<path d="M8640 7371 c0 -12 188 -22 230 -13 29 7 17 9 -65 15 -132 9 -165 9
-165 -2z"/>
<path d="M3762 6985 l5 -345 -24 -15 c-17 -11 -23 -25 -23 -51 0 -53 15 -74
54 -74 44 0 58 19 54 72 -2 34 -8 45 -26 53 l-24 10 7 348 c7 328 7 347 -10
347 -17 0 -17 -20 -13 -345z m36 -417 c-2 -25 -8 -33 -23 -33 -15 0 -21 8 -23
33 -3 29 -1 32 23 32 24 0 26 -3 23 -32z"/>
<path d="M6674 7159 c-3 -6 -3 -87 1 -179 7 -164 6 -169 -14 -179 -16 -9 -21
-21 -21 -55 0 -66 47 -98 83 -58 27 30 20 112 -9 112 -11 0 -14 33 -14 179 0
165 -7 211 -26 180z m39 -399 c8 -31 -3 -60 -24 -60 -15 0 -19 7 -19 40 0 33
4 40 19 40 10 0 21 -9 24 -20z"/>
<path d="M3702 6405 l-26 -22 31 4 c23 4 38 -2 65 -26 60 -52 106 -36 88 31
l-10 36 -62 -1 c-47 0 -66 -5 -86 -22z"/>
<path d="M3510 6295 c-25 -13 -40 -24 -35 -24 6 0 30 11 55 24 25 13 41 24 35
24 -5 0 -30 -11 -55 -24z"/>
<path d="M3601 6230 c-36 -22 -60 -40 -55 -40 6 0 31 14 57 30 26 17 52 30 57
30 6 0 10 5 10 10 0 13 5 15 -69 -30z"/>
<path d="M3089 6096 c-142 -68 -274 -127 -294 -130 -20 -4 -35 -9 -32 -12 15
-15 133 32 352 141 138 68 246 123 240 124 -5 0 -125 -56 -266 -123z"/>
<path d="M9136 6107 c-23 -55 -28 -76 -21 -87 5 -8 11 -7 21 1 9 7 14 8 13 3
-5 -30 3 -41 31 -42 17 0 30 3 30 6 0 4 33 7 74 7 55 0 72 -3 69 -12 -3 -7 0
-13 6 -13 6 0 12 10 13 23 0 12 4 0 8 -28 5 -39 7 -25 8 63 l2 112 -120 0
-120 0 -14 -33z"/>
<path d="M3315 6071 c-49 -26 -135 -71 -190 -99 -55 -28 -93 -52 -85 -52 16 0
17 1 180 87 128 68 190 104 190 109 0 6 0 6 -95 -45z"/>
<path d="M3910 6066 c0 -16 5 -26 15 -26 8 0 15 6 15 14 0 7 -7 19 -15 26 -13
11 -15 8 -15 -14z"/>
<path d="M3955 6080 c-11 -18 15 -40 46 -40 24 0 29 4 29 25 0 22 -4 25 -34
25 -19 0 -38 -5 -41 -10z"/>
<path d="M9101 5994 c0 -11 3 -14 6 -6 3 7 2 16 -1 19 -3 4 -6 -2 -5 -13z"/>
<path d="M5503 5973 c-9 -3 -13 -30 -13 -85 0 -45 2 -79 5 -77 2 3 9 36 14 74
6 39 15 71 21 73 5 2 8 8 4 13 -6 10 -12 10 -31 2z"/>
<path d="M9091 5954 c0 -11 3 -14 6 -6 3 7 2 16 -1 19 -3 4 -6 -2 -5 -13z"/>
<path d="M4210 5934 c0 -8 4 -13 8 -10 5 3 58 -45 119 -107 61 -62 169 -168
239 -237 71 -69 19 -14 -116 123 -135 136 -246 247 -247 247 -2 0 -3 -7 -3
-16z"/>
<path d="M9233 5923 c9 -2 23 -2 30 0 6 3 -1 5 -18 5 -16 0 -22 -2 -12 -5z"/>
<path d="M5330 5877 c-36 -16 -65 -21 -150 -21 -58 -1 -129 3 -158 7 l-54 8 7
-33 c7 -32 43 -106 69 -141 12 -16 22 -17 91 -8 86 10 116 30 162 109 26 44
56 67 73 57 6 -3 10 -2 10 4 0 6 6 8 14 5 11 -4 13 0 9 15 -6 25 -15 25 -73
-2z"/>
<path d="M2405 5776 c-229 -106 -408 -198 -633 -323 -73 -41 -166 -90 -207
-109 l-75 -33 0 264 0 265 -175 0 -175 0 2 -407 c1 -239 4 -360 8 -293 3 63 7
93 9 65 2 -35 5 -44 10 -31 5 14 10 16 15 8 9 -15 133 -16 138 -2 2 5 38 12
80 14 l77 4 4 -32 c2 -17 5 4 5 48 2 70 4 77 20 71 36 -15 53 -17 65 -7 7 6
30 6 57 2 l45 -8 -42 1 c-23 1 -46 -3 -50 -7 -4 -5 33 -6 82 -4 50 3 81 2 70
-2 -11 -4 18 -6 65 -4 63 2 74 1 45 -5 -35 -7 -30 -8 40 -11 44 -1 96 -2 115
-1 29 0 31 -1 15 -8 -14 -7 -16 -10 -5 -11 24 -3 89 -3 180 0 l85 3 -60 8
c-37 4 -18 5 50 2 61 -3 148 -7 194 -8 100 -4 119 -14 30 -16 -47 -1 -34 -4
51 -10 227 -15 243 -16 228 -4 -19 15 -20 35 -2 35 30 0 95 44 116 78 15 25
19 43 14 71 -6 39 9 101 24 101 5 0 14 -16 20 -35 6 -19 20 -40 31 -45 16 -9
21 -7 29 15 6 15 10 39 10 55 0 16 4 31 8 34 10 6 64 -21 74 -37 5 -7 8 -3 8
11 0 25 26 40 42 24 5 -5 14 -25 18 -44 7 -26 8 -20 7 32 -2 56 -5 65 -22 68
-19 3 -19 2 -1 -12 10 -8 16 -21 13 -28 -4 -11 -6 -11 -6 0 -1 7 -6 10 -13 6
-7 -5 -8 -3 -3 6 6 10 4 12 -9 7 -10 -4 -15 -3 -11 3 3 6 3 10 -2 11 -4 0 -21
3 -36 5 -16 3 -27 1 -24 -3 3 -4 -14 -9 -38 -11 -24 -1 -83 -14 -131 -28 -49
-15 -132 -39 -184 -54 -52 -15 -96 -32 -98 -39 -7 -21 19 -81 59 -133 21 -28
36 -54 34 -56 -4 -5 -239 13 -333 24 -38 5 -42 8 -38 27 3 12 3 17 0 10 -3 -7
-23 8 -51 40 -24 29 -54 60 -65 70 -20 16 -19 17 35 17 35 0 57 -5 60 -12 3
-7 6 -8 6 -3 1 10 71 8 71 -2 0 -2 -7 -18 -16 -34 -8 -17 -14 -33 -11 -35 2
-2 12 13 21 34 l17 38 67 -64 c37 -35 76 -68 87 -74 11 -5 3 4 -18 22 l-38 32
23 27 23 26 -26 -22 -25 -23 -40 41 -39 41 33 -7 c36 -7 152 3 152 13 0 4 -89
8 -198 10 -108 1 -214 7 -236 13 l-38 10 23 17 c13 9 27 16 32 14 4 -1 25 9
46 22 21 13 97 54 169 90 72 36 134 71 138 77 4 6 3 10 -2 7 -5 -2 -106 -52
-224 -110 -162 -80 -264 -122 -415 -173 -187 -63 -305 -89 -305 -69 0 5 19 18
43 30 23 12 123 65 222 119 156 84 523 268 695 348 48 22 105 58 90 56 -3 -1
-104 -47 -225 -103z m-276 -352 c38 -8 40 -28 6 -78 -28 -41 -29 -46 -16 -46
5 0 20 21 32 46 13 25 27 48 32 51 11 7 94 -73 113 -109 l15 -28 -36 0 c-28 0
-35 4 -35 19 0 11 -4 22 -9 25 -4 3 -6 -6 -3 -20 4 -24 3 -24 -39 -18 -66 10
-209 95 -209 124 0 9 75 38 101 39 9 1 31 -2 48 -5z m-189 -44 c-6 -12 -23
-26 -38 -31 -34 -13 -92 -18 -86 -7 3 4 13 8 23 8 27 0 91 29 91 40 0 6 5 10
10 10 7 0 7 -7 0 -20z m149 -97 c3 -2 -20 -2 -49 1 -30 2 -56 9 -58 15 -3 10
11 16 33 11 6 -1 5 4 -2 11 -9 9 -16 9 -26 1 -8 -7 -17 -8 -21 -4 -4 4 -6 0
-4 -8 2 -11 -7 -16 -35 -18 -36 -3 -38 -2 -32 20 4 13 13 26 19 30 6 4 20 13
30 21 19 14 33 7 145 -80z m-259 30 c13 -4 13 -5 0 -13 -18 -9 -120 -1 -120
11 0 16 73 18 120 2z m253 -60 c-7 -2 -19 -2 -25 0 -7 3 -2 5 12 5 14 0 19 -2
13 -5z m15 -20 c-10 -2 -26 -2 -35 0 -10 3 -2 5 17 5 19 0 27 -2 18 -5z m529
-19 c-3 -3 -12 -4 -19 -1 -8 3 -5 6 6 6 11 1 17 -2 13 -5z"/>
<path d="M2075 5383 c-22 -20 -31 -31 -20 -24 28 15 69 51 64 55 -2 2 -22 -12
-44 -31z"/>
<path d="M2182 5340 c0 -19 2 -27 5 -17 2 9 2 25 0 35 -3 9 -5 1 -5 -18z"/>
<path d="M1950 5351 c0 -5 5 -13 10 -16 6 -3 10 -2 10 4 0 5 -4 13 -10 16 -5
3 -10 2 -10 -4z"/>
<path d="M5356 5831 c-3 -5 -3 -23 0 -41 5 -21 9 -27 15 -19 4 7 5 18 1 24 -4
5 -5 18 -4 28 3 18 -3 23 -12 8z"/>
<path d="M5391 5795 c-1 -11 -4 -31 -6 -45 l-6 -25 11 25 c6 13 9 33 7 45 -4
19 -4 19 -6 0z"/>
<path d="M5025 5648 c-17 -13 -75 -115 -75 -131 0 -3 44 -8 98 -12 114 -8 165
-21 253 -65 35 -18 65 -33 67 -35 1 -1 -4 -34 -13 -74 -19 -93 -45 -299 -46
-376 -2 -117 0 -117 -121 -10 -117 103 -168 168 -168 212 0 30 -24 73 -41 73
-5 0 -9 -32 -9 -72 l0 -72 -36 35 c-20 18 -56 60 -81 92 l-45 59 12 76 c6 43
14 90 17 105 6 28 5 28 -33 21 -50 -9 -74 -21 -74 -39 0 -7 -5 -17 -11 -21 -8
-4 -9 0 -4 15 16 52 -60 5 -126 -77 -46 -59 -70 -65 -102 -26 -63 75 -86 98
-87 83 0 -11 -8 -14 -29 -11 l-29 4 10 -43 c10 -41 11 -215 2 -231 -3 -4 21
-8 52 -10 58 -3 71 -12 55 -36 -7 -11 -34 -11 -157 2 -82 9 -233 22 -336 29
-124 9 -192 18 -203 27 -11 9 -13 15 -5 20 7 4 10 20 8 36 l-4 29 -12 -27 c-6
-16 -16 -28 -21 -28 -15 0 -113 89 -134 122 l-19 28 35 0 c64 0 127 -12 127
-25 0 -7 7 -16 16 -19 13 -5 15 -2 11 14 -4 17 0 20 31 20 55 0 82 -10 82 -30
0 -30 -11 -50 -29 -51 -13 0 -13 -2 -1 -6 8 -3 18 -10 21 -16 4 -6 25 0 53 16
44 25 46 25 46 6 0 -15 -5 -19 -18 -15 -16 5 -18 2 -14 -26 5 -29 6 -30 11
-10 3 13 10 23 16 22 5 -1 13 16 18 36 4 21 9 40 11 42 2 2 39 -28 82 -67 109
-100 121 -89 14 14 -82 79 -91 85 -130 85 -34 0 -43 4 -47 21 -4 15 -8 17 -14
8 -14 -23 -93 -24 -334 -4 -93 8 -196 15 -227 17 -32 2 -58 5 -58 7 0 2 12 20
26 40 l26 36 -39 -40 c-38 -38 -41 -40 -94 -37 -30 2 -51 1 -48 -2 3 -3 44 -8
91 -11 98 -5 118 -11 119 -34 0 -11 2 -12 6 -3 4 10 8 9 19 -5 12 -17 13 -16
7 5 -6 23 -4 23 72 21 l78 -2 -6 -73 c-3 -43 -2 -74 4 -74 5 0 9 32 9 70 0 39
3 70 8 69 4 0 25 -24 47 -52 23 -29 63 -67 90 -86 l50 -34 -80 7 c-44 3 -178
10 -299 16 -120 6 -222 13 -228 16 -5 3 -15 1 -23 -6 -7 -6 -26 -15 -42 -20
-28 -8 -28 -8 7 -9 52 -1 290 -19 410 -31 58 -5 140 -13 183 -16 56 -4 77 -9
77 -19 0 -16 36 -24 120 -28 l54 -2 11 -50 10 -50 63 -5 c34 -3 62 -8 62 -12
0 -5 0 -14 0 -22 0 -7 -18 -26 -41 -40 -22 -15 -38 -30 -35 -33 3 -3 19 6 36
21 17 14 36 26 41 26 5 0 9 -23 9 -51 l0 -52 -46 7 c-28 3 -43 2 -39 -4 3 -6
24 -10 46 -10 l39 0 0 -41 c0 -37 -2 -40 -22 -35 l-23 6 23 -11 c21 -12 22
-17 22 -143 l0 -131 -42 -30 c-23 -16 -48 -34 -55 -38 -11 -7 -13 40 -12 277
l2 285 28 -6 c15 -3 35 0 46 6 14 8 8 10 -34 11 l-51 0 -4 -82 c-5 -135 6
-1585 13 -1558 3 14 5 48 5 75 -1 50 -1 50 39 62 l40 12 -35 -2 c-34 -2 -35
-1 -38 37 -3 35 2 44 44 87 27 27 45 49 41 49 -4 0 -25 -18 -47 -40 -22 -22
-41 -40 -42 -40 -2 0 -3 31 -3 70 l0 69 26 -25 c14 -13 29 -24 34 -24 6 0 -3
11 -18 25 -26 25 -36 42 -18 31 10 -7 65 34 56 42 -3 3 -11 -3 -18 -12 -10
-13 -20 -16 -35 -12 -32 11 -27 27 20 68 24 21 40 38 36 38 -4 0 -23 -14 -43
-31 -35 -31 -35 -31 -35 -8 0 16 13 33 39 52 55 38 64 36 59 -18 -2 -25 1 -45
5 -45 5 0 5 -6 0 -12 -4 -7 -6 -25 -4 -40 1 -18 -2 -28 -11 -28 -9 0 -10 -2
-2 -8 7 -4 14 -37 16 -74 3 -56 1 -68 -12 -68 -10 0 -11 -3 -3 -8 6 -4 14 -19
18 -34 5 -19 2 -29 -12 -37 -17 -10 -17 -10 0 -11 14 0 17 -11 19 -77 0 -43 1
-84 1 -91 -1 -7 9 -3 21 10 23 24 26 39 4 20 -10 -8 -13 1 -13 43 0 48 2 52
18 43 10 -5 26 -7 35 -5 13 4 11 5 -5 6 -33 2 -51 26 -51 71 -1 31 3 40 16 40
16 1 16 1 0 10 -13 8 -16 22 -13 63 2 28 4 59 4 68 1 10 20 26 45 38 25 11 47
25 51 31 3 5 10 10 16 10 14 0 11 -28 -3 -33 -10 -4 -10 -6 0 -6 9 -1 12 -28
12 -98 0 -91 -1 -96 -16 -75 -8 12 -25 27 -37 33 -18 10 -17 6 8 -22 17 -19
34 -36 38 -40 10 -7 -1 -58 -17 -78 -8 -11 -8 -13 0 -8 17 10 21 -16 20 -131
-1 -56 2 -102 6 -102 4 0 5 -15 2 -32 -5 -29 -4 -31 7 -14 9 15 10 90 5 310
-3 160 -7 571 -7 914 -1 543 0 625 13 640 9 9 19 28 23 41 7 22 10 23 68 17
33 -3 75 -6 93 -6 26 0 34 -4 34 -17 0 -20 49 -174 50 -158 0 6 18 -30 40 -78
41 -94 58 -120 70 -112 32 20 69 -330 86 -799 6 -182 9 -199 25 -203 18 -5 19
-21 19 -284 0 -315 -10 -469 -45 -684 -45 -278 -45 -269 -65 -795 0 -11 -4 -9
-12 5 -8 13 -13 86 -14 200 -2 99 -5 230 -8 290 -3 61 -6 197 -7 304 0 201
-16 258 -20 71 -1 -58 -5 -115 -10 -127 -6 -16 -5 -23 4 -23 19 0 9 -101 -12
-117 -14 -10 -13 -11 6 -7 l22 6 1 -246 c1 -229 -1 -246 -17 -247 -14 0 -13
-2 5 -9 22 -9 28 -33 16 -64 -4 -11 -11 -13 -31 -5 -14 5 -118 14 -232 19
-281 13 -329 18 -459 42 l-112 21 -67 -22 c-41 -14 -97 -45 -151 -83 -120 -87
-223 -138 -276 -138 -50 0 -51 -1 -62 -113 -4 -42 -11 -66 -18 -64 -16 5 -19
79 -6 124 6 21 15 137 20 258 5 121 15 283 21 360 14 169 17 578 6 768 -7 123
-6 137 8 137 9 0 13 5 10 10 -4 6 -1 17 5 25 9 11 9 35 1 102 -19 146 -21 153
-43 153 -16 0 -19 -5 -14 -27 3 -16 8 -81 12 -147 6 -113 6 -118 -12 -112 -11
3 -61 10 -112 16 -57 6 -100 16 -109 25 -8 8 -25 18 -38 21 -34 8 -22 27 36
54 27 13 49 27 49 32 0 5 -11 20 -24 33 -13 13 -22 25 -21 27 6 6 -82 118 -89
113 -3 -3 -4 -2 -1 1 2 4 -2 19 -10 35 -16 30 -19 143 -7 213 l7 39 165 1
c186 1 178 -3 165 82 l-6 44 -114 0 c-104 0 -114 2 -109 18 18 55 28 72 43 72
20 0 306 192 422 284 l87 68 -21 63 c-20 63 -21 63 -53 58 l-32 -5 5 41 c3 22
2 41 -3 41 -5 0 -40 -9 -79 -19 -38 -11 -81 -22 -95 -25 -23 -5 -25 -8 -22
-59 3 -47 1 -55 -16 -59 -17 -5 -20 1 -26 47 -17 147 -86 295 -181 391 -78 79
-115 102 -195 121 l-55 13 55 -6 c64 -6 175 -47 209 -78 19 -17 17 -11 -9 27
-65 92 -226 198 -325 214 l-33 5 -12 -58 c-6 -33 -12 -66 -13 -74 -2 -11 12
-17 53 -21 l55 -6 -63 1 c-62 2 -64 1 -93 -35 -85 -108 -112 -232 -113 -529
l-1 -215 -46 -3 c-41 -3 -46 -5 -43 -25 1 -12 8 -69 15 -127 9 -72 18 -109 28
-117 13 -9 14 -14 4 -24 -7 -7 -12 -31 -11 -53 l1 -41 7 45 c4 25 8 40 8 33 1
-7 8 -10 16 -7 29 11 45 -49 61 -236 8 -99 15 -183 15 -185 0 -3 -111 -6 -247
-7 -137 -2 -257 -7 -267 -12 -14 -7 -17 -6 -12 2 5 9 -14 12 -73 12 l-81 0 0
215 c0 185 -2 216 -15 222 -9 3 -18 4 -20 1 -2 -2 -7 -101 -11 -221 l-7 -217
-25 0 -24 0 4 218 c3 187 1 217 -12 217 -23 0 -28 -43 -29 -247 l-1 -188 -265
0 c-229 0 -265 -2 -265 -15 0 -13 36 -15 265 -15 l265 0 0 -65 0 -65 -290 0
c-251 0 -290 -2 -290 -15 0 -13 39 -15 290 -15 l290 0 0 -30 0 -30 -290 0
c-251 0 -290 -2 -290 -15 0 -13 38 -15 273 -17 149 -1 280 -2 290 -1 14 0 17
-10 17 -54 l0 -54 -87 1 c-108 2 -298 -5 -415 -15 -82 -7 -88 -6 -88 11 0 11
-7 4 -19 -19 -24 -47 -35 -91 -21 -82 5 3 10 13 10 21 0 11 20 14 100 14 l101
0 -7 -47 c-3 -27 -8 -50 -11 -53 -3 -3 -63 -5 -134 -5 -116 0 -129 -2 -129
-17 0 -14 9 -18 42 -18 30 0 69 -13 135 -46 l93 -46 0 -94 c0 -71 -3 -94 -13
-94 -12 0 -128 122 -200 210 l-28 35 23 -35 c12 -19 58 -75 102 -125 l79 -90
-79 -3 c-72 -3 -93 -11 -94 -34 0 -5 45 -8 100 -8 97 0 100 -1 90 -20 -9 -16
-8 -18 5 -14 13 5 15 -6 15 -69 l0 -74 -62 -8 c-35 -4 -87 -8 -116 -9 l-53 -1
25 -20 c14 -11 66 -42 116 -69 89 -49 90 -50 90 -88 l0 -38 -110 0 c-103 0
-110 -1 -110 -20 0 -18 8 -20 111 -22 l112 -3 -84 -47 c-97 -54 -147 -90 -82
-58 24 11 43 17 43 13 0 -5 4 -3 8 3 4 5 31 24 60 42 l52 32 -1 -193 0 -192
-34 -28 c-29 -24 -234 -137 -248 -137 -3 0 -3 534 0 1186 4 1215 5 1203 -29
1204 -5 0 -8 -135 -8 -300 l0 -300 -25 0 -25 0 -2 297 c-3 274 -4 298 -21 301
-16 3 -17 -30 -17 -588 0 -469 3 -591 13 -588 14 5 24 103 26 271 l1 117 26 0
26 0 -3 -550 -4 -550 -22 0 c-23 0 -23 0 -23 170 0 159 -1 170 -20 180 -20 11
-20 6 -22 -461 l-3 -471 -83 -50 -82 -50 -126 -8 c-69 -5 -128 -10 -130 -13
-14 -14 385 -17 2504 -19 l2332 -2 0 -39 0 -38 223 6 c245 7 309 16 380 51
l47 24 693 0 c380 0 1176 0 1767 0 l1075 1 -85 81 c-47 44 -136 118 -197 164
l-113 84 0 205 c0 189 -1 205 -17 205 -17 0 -18 -14 -15 -190 2 -104 1 -190
-1 -190 -3 0 -41 24 -84 54 -80 55 -316 190 -407 232 -48 23 -61 24 -227 23
-226 -2 -263 8 -303 81 -15 28 -31 48 -35 45 -10 -5 -32 19 -55 60 -15 26 -14
15 1 -22 3 -8 -19 -5 -69 8 -62 16 -244 39 -315 39 -16 0 -23 7 -26 27 l-4 28
-2 -27 c-1 -23 -6 -28 -26 -28 l-25 0 0 299 c0 230 3 300 13 304 6 3 0 6 -15
6 -24 1 -27 -3 -31 -41 l-4 -43 -1 46 c-2 42 -4 46 -25 42 -22 -4 -22 -7 -19
-114 l4 -109 -51 0 -51 0 0 200 c0 194 1 200 22 211 18 10 24 8 36 -7 13 -18
14 -18 12 1 -5 43 3 58 10 20 6 -32 7 -24 9 43 0 49 -3 82 -9 82 -5 0 -10 7
-10 16 0 15 -11 16 -95 10 -81 -5 -95 -4 -95 9 0 8 7 15 15 15 13 0 15 26 15
175 l0 175 -165 0 c-124 0 -167 -3 -170 -12 -7 -21 -25 -581 -19 -590 3 -5 14
3 25 16 11 14 23 25 27 25 4 -1 12 0 17 1 6 1 34 1 63 0 28 -1 52 2 52 7 0 10
132 9 148 -1 8 -5 12 -41 12 -105 l0 -97 -32 -17 c-111 -57 -146 -79 -167
-104 -13 -15 -20 -21 -16 -13 4 8 -3 3 -16 -12 -28 -32 -66 -48 -115 -48 -22
0 -34 5 -34 14 0 9 -9 12 -27 9 -16 -2 -43 -4 -60 -3 -18 0 -33 -4 -33 -10 0
-6 -56 -10 -159 -10 l-159 0 -2 128 c-1 131 -17 251 -19 150 -1 -71 -31 -58
-31 13 0 16 -4 29 -10 29 -6 0 -10 -78 -10 -215 l0 -215 -285 0 c-183 0 -285
-4 -285 -10 0 -6 39 -10 98 -10 152 0 252 -10 252 -26 0 -11 -36 -14 -182 -14
-100 0 -179 -2 -177 -5 3 -2 133 -6 290 -7 l284 -3 3 -221 2 -221 -77 -51
c-43 -28 -96 -58 -118 -65 -54 -19 -159 -35 -280 -42 -146 -9 -155 -11 -155
-43 0 -54 -13 -102 -26 -102 -17 0 -18 35 -4 180 35 385 63 1131 55 1473 l-7
287 33 0 32 0 -7 428 c-4 235 -10 445 -13 467 l-6 40 72 -87 c85 -101 118
-121 179 -107 60 13 131 50 125 65 -2 6 0 15 6 19 6 3 11 -1 11 -9 0 -9 2 -16
5 -16 15 0 180 89 281 152 128 79 150 101 135 142 -7 16 -7 26 -1 26 5 0 17
17 27 38 9 20 19 41 21 46 3 5 -2 6 -11 3 -18 -7 -10 14 79 204 57 123 62 140
40 158 -7 6 -101 18 -211 26 -159 12 -202 13 -224 3 -20 -10 -53 -68 -153
-265 l-127 -253 -36 58 c-43 68 -82 147 -186 382 -83 186 -110 209 -69 59 12
-44 20 -85 18 -90 -2 -6 -11 22 -21 61 -10 38 -23 70 -28 70 -5 0 -9 -3 -9 -7
0 -5 -7 -53 -15 -108 -23 -158 -19 -332 9 -440 15 -57 26 -137 31 -217 l7
-127 -121 -3 -121 -3 0 84 c0 78 1 83 20 78 19 -5 20 0 20 69 0 67 -2 74 -20
74 -19 0 -20 7 -20 165 0 125 3 167 13 171 7 2 30 -4 52 -15 34 -17 40 -17 43
-4 2 8 -2 28 -9 45 -14 35 -14 97 1 112 7 7 10 4 11 -9 0 -17 2 -16 10 4 6 17
6 28 -1 35 -8 8 -9 6 -4 -8 5 -13 4 -17 -4 -12 -16 10 -15 43 1 48 27 11 32
-4 30 -89 l-2 -88 13 81 c7 45 16 93 20 107 3 14 2 29 -4 32 -5 3 -10 -1 -10
-9 0 -8 -4 -18 -10 -21 -6 -4 -7 1 -3 12 6 16 5 16 -10 4 -14 -11 -18 -11 -23
3 -4 10 -13 15 -20 12 -8 -3 -14 0 -14 6 0 7 -6 3 -14 -8 -14 -18 -15 -18 -22
-1 -3 10 1 61 10 114 8 52 13 100 10 104 -10 17 -104 60 -104 48 0 -8 -6 -6
-17 4 -42 36 -123 52 -270 52 -82 0 -133 3 -120 8 54 20 258 9 350 -19 26 -8
22 33 -9 73 -39 51 -77 66 -183 72 -79 5 -98 3 -116 -11z m-318 -360 c-3 -7
-5 -2 -5 12 0 14 2 19 5 13 2 -7 2 -19 0 -25z m-794 -42 c7 3 3 -2 -7 -10 -24
-20 -26 -18 -18 19 6 26 7 27 10 7 2 -13 8 -20 15 -16z m192 -46 c10 -11 16
-20 13 -20 -3 0 -13 9 -23 20 -10 11 -16 20 -13 20 3 0 13 -9 23 -20z m833
-132 c27 -16 32 -25 27 -42 -4 -12 -7 -30 -6 -41 0 -16 -2 -17 -9 -5 -5 8 -7
17 -5 21 3 3 -7 16 -20 29 -13 13 -22 27 -19 32 3 5 -3 12 -15 15 -11 3 -19 9
-16 13 3 4 -2 10 -10 14 -8 3 -15 10 -15 17 0 6 12 1 28 -11 15 -12 42 -31 60
-42z m1515 36 c76 -4 140 -11 143 -16 4 -6 -26 -81 -66 -169 l-73 -159 -56 1
c-45 1 -51 3 -31 10 16 5 -18 7 -88 3 -64 -3 -112 -1 -109 3 3 5 -22 8 -56 7
-34 -2 -54 -1 -44 2 9 3 15 9 12 14 -3 5 28 79 70 165 l75 157 42 -5 c24 -4
105 -9 181 -13z m-1333 -201 c0 -23 -34 -13 -67 19 -19 18 -33 42 -33 56 0 22
3 21 50 -20 27 -24 50 -49 50 -55z m-2198 26 c20 -10 39 -23 43 -29 3 -5 14
-10 24 -10 21 0 91 -119 115 -195 15 -47 46 -211 46 -242 0 -10 -10 -13 -37
-11 l-38 3 -6 115 c-7 117 -24 186 -61 248 -22 36 -35 44 -17 10 l12 -23 -25
23 -24 22 -46 -30 c-62 -41 -112 -105 -153 -193 -37 -79 -74 -203 -76 -252 -1
-24 -3 -25 -6 -7 -13 65 67 296 129 374 17 22 59 61 94 87 l63 48 -44 27 c-24
16 -52 37 -62 48 -18 20 -17 20 7 13 14 -4 42 -16 62 -26z m1293 11 c4 -6 -10
-10 -34 -10 -21 0 -46 -3 -55 -6 -9 -3 -16 -1 -16 4 0 6 17 13 38 15 20 2 42
4 49 5 6 1 15 -2 18 -8z m5 -85 l0 -65 -37 -1 -38 -2 35 -6 35 -6 2 -97 c1
-54 1 -98 -1 -98 -1 0 -24 20 -51 44 l-48 45 32 18 c57 32 68 45 14 17 -29
-15 -53 -30 -53 -34 0 -3 23 -27 50 -53 52 -49 58 -64 38 -86 -11 -11 -10 -13
5 -8 15 6 17 -3 17 -90 l0 -96 -45 42 c-24 22 -51 41 -60 41 -12 0 -15 12 -15
55 0 47 2 54 18 49 16 -5 16 -5 0 6 -23 14 -25 65 -3 56 38 -15 47 -15 18 0
l-33 18 0 88 c0 63 4 88 13 89 10 0 10 2 0 6 -17 6 -17 97 0 111 8 7 26 8 49
3 28 -7 38 -5 42 5 11 28 16 12 16 -51z m895 -65 c21 -22 37 -40 34 -40 -3 0
-23 18 -44 40 -21 22 -37 40 -34 40 3 0 23 -18 44 -40z m-2101 -16 c3 -8 2
-12 -4 -9 -6 3 -10 10 -10 16 0 14 7 11 14 -7z m2248 -119 c4 -5 4 -11 0 -13
-10 -3 -102 80 -102 92 0 8 89 -61 102 -79z m-2225 43 c-3 -8 -6 -5 -6 6 -1
11 2 17 5 13 3 -3 4 -12 1 -19z m10 -40 c-3 -8 -6 -5 -6 6 -1 11 2 17 5 13 3
-3 4 -12 1 -19z m1033 -343 c0 -91 -1 -95 -19 -86 -10 6 -31 25 -45 42 -15 17
-29 29 -33 26 -3 -3 18 -28 46 -55 50 -48 51 -51 51 -106 l0 -56 -50 0 c-42 0
-50 3 -50 19 0 10 21 38 48 61 46 42 35 38 -28 -9 l-32 -24 4 103 4 103 44 38
c25 22 48 39 53 39 4 0 7 -43 7 -95z m94 51 l44 -43 1 -107 2 -106 -45 32
c-47 35 -61 56 -23 37 21 -11 21 -11 5 7 -14 14 -20 16 -30 6 -10 -10 -2 -23
42 -61 l55 -49 -30 -7 c-50 -11 -52 -13 -12 -14 l37 -1 0 -60 0 -61 -28 33
c-16 18 -36 43 -44 56 -9 13 -19 19 -22 14 -3 -6 10 -25 28 -43 19 -19 36 -41
38 -49 2 -8 8 -18 13 -22 12 -9 -5 -26 -57 -57 l-38 -23 0 40 c0 30 5 41 23
51 l22 11 -22 -6 c-22 -5 -23 -2 -23 52 0 42 5 61 18 71 16 14 16 14 0 9 -23
-7 -23 3 -1 19 13 9 13 14 3 20 -9 5 -11 4 -6 -3 4 -7 2 -12 -3 -12 -7 0 -10
29 -10 79 1 43 -2 84 -6 91 -4 7 -2 16 6 21 12 7 11 9 -1 9 -13 0 -13 1 0 10
10 6 11 10 3 10 -9 0 -13 16 -13 45 0 58 17 59 74 1z m1507 -268 c0 -51 3
-104 5 -118 3 -14 2 -40 -1 -57 l-6 -33 -79 0 -79 0 -21 73 c-11 39 -33 101
-48 136 -15 36 -28 68 -30 73 -2 4 43 9 100 11 57 1 115 4 131 5 l27 2 1 -92z
m-1603 -69 c-2 -42 -2 -42 -53 -24 -15 5 -14 3 3 -8 l24 -14 -26 -16 c-40 -27
-46 -21 -46 43 l0 60 50 0 51 0 -3 -41z m1 -105 l2 -57 -38 28 c-21 16 -40 30
-43 32 -6 5 53 52 66 53 6 0 12 -23 13 -56z m-40 -39 c24 -19 39 -35 32 -35
-6 0 -29 -11 -51 -25 l-40 -25 0 60 c0 33 3 60 8 60 4 0 27 -16 51 -35z m190
-70 c-1 -52 -4 -93 -7 -91 -2 3 -16 -6 -30 -20 -15 -13 -32 -24 -39 -24 -6 0
-18 -3 -27 -6 -13 -5 -16 1 -16 30 0 40 6 43 36 22 11 -8 26 -11 32 -7 8 5 -2
12 -28 21 -36 12 -40 16 -40 48 0 39 3 38 68 -22 17 -16 32 -25 32 -18 0 6
-23 29 -50 51 -43 34 -47 41 -31 46 11 3 36 19 56 35 21 17 40 30 42 30 2 0 3
-43 2 -95z m1461 -35 c0 -69 0 -69 -24 -60 -13 5 -53 14 -88 20 -34 7 -69 16
-75 22 -15 12 -18 62 -3 53 6 -3 10 0 10 9 0 21 15 24 103 25 l77 1 0 -70z
m1354 -269 c10 -16 -5 -41 -25 -41 -14 0 -19 7 -19 25 0 18 5 25 19 25 11 0
22 -4 25 -9z m-5239 -107 c0 -56 -1 -59 -25 -59 -23 0 -25 4 -28 49 -4 62 1
73 30 71 21 -2 23 -6 23 -61z m721 56 c7 0 14 -32 18 -77 10 -111 14 -121 44
-126 15 -2 -145 -5 -355 -6 l-383 -1 0 30 0 29 142 3 c102 2 143 6 146 16 3 9
-30 12 -142 12 l-146 0 0 63 0 63 333 -3 c182 -1 337 -3 343 -3z m4444 -35
c20 -25 8 -50 -25 -50 -31 0 -43 20 -31 51 7 18 40 18 56 -1z m-3723 -47 c-3
-7 -5 -2 -5 12 0 14 2 19 5 13 2 -7 2 -19 0 -25z m-2289 -130 c3 -56 2 -58
-23 -58 -24 0 -25 2 -25 61 0 57 1 60 23 57 19 -3 22 -10 25 -60z m844 32 c4
-27 2 -30 -21 -30 -22 0 -26 5 -28 30 -2 25 1 30 21 30 19 0 25 -6 28 -30z
m3438 -175 c22 -176 45 -584 36 -655 -3 -25 -6 -154 -7 -287 0 -134 -3 -243
-7 -243 -4 0 -39 7 -77 15 -39 8 -91 15 -116 15 l-45 0 -22 -172 c-12 -95 -22
-179 -22 -185 0 -9 15 -13 43 -13 58 0 152 -16 184 -32 25 -12 58 -57 48 -66
-2 -2 -14 3 -27 11 -24 16 -96 31 -204 42 l-62 7 -11 -35 c-7 -20 -19 -41 -27
-47 -16 -14 -17 -9 -4 45 10 43 50 340 56 415 21 267 172 1264 203 1342 9 22
10 22 11 -7 1 -16 5 -39 10 -50 6 -15 9 -6 10 35 3 70 5 59 30 -135z m-2630
60 l0 -65 -63 0 c-35 0 -66 2 -69 6 -3 3 -146 5 -317 4 l-311 -1 0 56 0 55
363 3 c199 1 370 3 380 5 15 2 17 -7 17 -63z m-806 -3 c1 -50 0 -52 -26 -52
-27 0 -28 2 -28 56 0 54 1 55 26 52 25 -3 27 -7 28 -56z m5296 19 c0 -20 -25
-35 -41 -25 -5 3 -9 14 -9 25 0 14 7 19 25 19 18 0 25 -5 25 -19z m-5645 -111
c-3 -5 -30 -9 -58 -8 l-52 1 55 7 c30 4 56 7 58 8 2 1 0 -2 -3 -8z m264 -6 c2
-2 -30 -4 -73 -4 -50 0 -75 4 -71 10 6 9 133 4 144 -6z m74 -1 c-7 -2 -21 -2
-30 0 -10 3 -4 5 12 5 17 0 24 -2 18 -5z m375 0 c-60 -2 -156 -2 -215 0 -60 1
-11 3 107 3 118 0 167 -2 108 -3z m255 0 c-24 -2 -62 -2 -85 0 -24 2 -5 4 42
4 47 0 66 -2 43 -4z m-983 -73 l0 -50 -61 0 -62 0 7 38 c3 20 6 43 6 50 0 8
18 12 55 12 l55 0 0 -50z m280 -8 l0 -47 -73 1 c-39 1 -78 2 -84 3 -8 0 -13
17 -13 42 0 33 -3 40 -17 37 -14 -3 -17 -12 -15 -41 3 -32 1 -37 -18 -37 -18
0 -21 5 -19 43 2 23 6 44 10 47 4 3 57 4 118 2 l111 -3 0 -47z m837 48 c7 0
13 -26 16 -72 2 -40 8 -89 13 -108 5 -19 8 -81 6 -137 l-3 -103 -45 0 -45 0 3
142 3 143 30 5 30 6 -27 25 c-18 17 -30 41 -34 69 -7 42 -6 43 17 37 13 -4 29
-7 36 -7z m-757 -48 c0 -48 0 -49 -30 -44 -28 4 -30 7 -30 48 0 42 1 44 30 44
29 0 30 -1 30 -48z m468 -4 c-2 -29 -6 -52 -10 -50 -5 1 -98 2 -208 2 l-200 0
0 50 0 50 211 0 210 0 -3 -52z m196 44 c7 -12 -33 -70 -52 -76 -9 -2 -38 -7
-64 -11 l-48 -6 0 50 0 51 79 0 c44 0 82 -4 85 -8z m4776 -132 c0 -55 -4 -100
-9 -100 -4 0 -8 45 -7 100 0 55 4 100 9 100 4 0 7 -45 7 -100z m-5801 -82 c-3
-114 -11 -132 -74 -175 l-35 -24 0 86 c0 86 0 86 23 74 17 -8 15 -5 -6 13 -26
21 -28 28 -24 73 3 28 6 50 6 50 1 0 26 1 57 3 l56 3 -3 -103z m821 90 c0 -4
-10 -10 -22 -12 -13 -3 -70 -16 -128 -30 -58 -13 -127 -27 -155 -31 -27 -3
-62 -9 -77 -11 -27 -5 -28 -4 -28 40 l0 46 178 2 c97 2 189 3 205 3 15 1 27
-3 27 -7z m-980 -33 c0 -19 -4 -35 -9 -35 -10 0 -111 61 -111 66 0 2 27 4 60
4 l60 0 0 -35z m212 -37 c-5 -108 -10 -115 -11 -15 0 48 3 87 7 87 4 0 6 -33
4 -72z m220 13 l-4 -59 -62 -11 c-97 -17 -91 -20 -88 59 l4 70 76 0 77 0 -3
-59z m88 9 c0 -36 -4 -50 -14 -50 -8 0 -21 -3 -29 -6 -12 -4 -16 6 -19 50 l-3
56 33 0 c32 0 32 0 32 -50z m650 -59 l0 -108 -57 -12 c-96 -19 -89 -27 -92
109 l-2 120 75 0 76 0 0 -109z m-182 -16 c-3 -106 -17 -145 -20 -57 l-1 47 -4
-41 -4 -42 -107 47 c-59 26 -120 55 -137 63 l-30 16 40 7 c32 5 251 58 263 64
2 0 2 -46 0 -104z m4059 13 c-3 -8 -6 -5 -6 6 -1 11 2 17 5 13 3 -3 4 -12 1
-19z m-4234 -55 c81 -37 144 -70 140 -74 -18 -16 -176 -43 -275 -46 l-108 -4
0 83 0 84 33 11 c53 17 56 16 210 -54z m5087 -43 l0 -90 -89 0 c-49 0 -102 3
-119 6 l-31 6 48 38 c52 41 180 130 187 130 2 0 4 -40 4 -90z m-5380 0 l0 -80
-30 0 -30 0 0 69 c0 73 -1 72 58 90 1 1 2 -35 2 -79z m5442 45 c2 -20 2 -38
-1 -41 -3 -2 -4 -25 -2 -49 1 -27 -2 -45 -8 -45 -7 0 -11 31 -11 85 0 85 14
117 22 50z m-915 -27 c-2 -13 -4 -5 -4 17 -1 22 1 32 4 23 2 -10 2 -28 0 -40z
m-4615 -46 l3 -52 -80 0 -80 0 -2 54 -1 53 76 14 c87 16 79 22 84 -69z m4615
-34 c-2 -13 -4 -5 -4 17 -1 22 1 32 4 23 2 -10 2 -28 0 -40z m-4887 8 c0 -32
-1 -33 -39 -32 l-39 1 36 32 c21 18 38 32 40 33 1 0 2 -15 2 -34z m58 -7 c-6
-4 -3 -9 8 -12 16 -4 16 -5 -3 -6 -19 -1 -23 4 -23 31 0 30 1 31 14 12 10 -13
11 -21 4 -25z m959 -15 c-1 -1 -32 -5 -68 -9 -63 -7 -66 -6 -72 16 -3 13 -4
25 -2 27 2 2 29 5 59 6 31 2 59 6 63 10 4 4 11 -5 15 -20 4 -16 6 -29 5 -30z
m-205 14 c4 -23 3 -23 -76 -19 l-81 4 68 12 c37 6 70 15 74 18 9 10 10 9 15
-15z m-858 -70 c-6 -10 -4 -10 7 0 25 23 39 14 36 -23 -2 -41 -8 -42 -49 -14
-23 17 -27 24 -16 31 9 6 6 7 -9 3 -12 -3 -24 -1 -28 5 -4 6 7 10 30 10 26 0
34 -4 29 -12z m111 -65 c-16 -190 -22 -205 -24 -60 -1 119 1 137 15 137 14 0
15 -11 9 -77z m205 -4 c0 -44 -3 -79 -7 -77 -5 2 -41 19 -80 38 l-73 34 0 43
0 43 80 0 80 0 0 -81z m90 21 c0 -57 -1 -60 -25 -60 -24 0 -25 3 -25 60 0 57
1 60 25 60 24 0 25 -3 25 -60z m454 23 c3 -21 6 -65 6 -97 l0 -59 -152 6 c-83
4 -175 7 -205 7 l-53 0 0 39 c0 29 6 42 23 54 l22 16 -22 -6 c-21 -5 -23 -2
-23 36 l0 41 199 0 198 0 7 -37z m206 -21 c0 -48 -2 -52 -19 -43 -10 6 -33 27
-50 47 l-33 36 -34 -33 c-34 -32 -34 -33 -31 -9 3 14 1 32 -3 40 -7 13 5 15
81 15 l89 0 0 -53z m120 16 c0 -24 -3 -59 -6 -79 -6 -32 -8 -35 -35 -31 -29 4
-29 4 -29 78 l0 74 35 0 c35 0 35 -1 35 -42z m3747 -395 c-1 -82 -3 -15 -3
147 0 162 2 229 3 148 2 -82 2 -214 0 -295z m513 430 c0 -18 -54 -74 -67 -69
-8 3 -11 2 -8 -3 9 -16 -12 -22 -41 -11 -15 6 -29 8 -32 5 -11 -10 34 -34 76
-41 23 -3 42 -10 42 -15 0 -5 8 -9 19 -9 10 0 63 -16 117 -36 55 -20 131 -47
169 -59 l70 -22 0 -58 c0 -63 -7 -71 -51 -55 -28 11 -28 10 -12 -6 17 -17 15
-19 -45 -42 -121 -46 -165 -53 -352 -56 -162 -3 -187 -6 -251 -29 -39 -14 -81
-30 -93 -36 l-21 -12 0 266 0 266 28 -23 c151 -123 224 -180 262 -207 91 -64
303 -202 305 -199 2 2 -74 55 -168 118 -170 113 -339 242 -386 294 -33 35 -15
33 24 -3 33 -32 203 -148 186 -127 -6 7 -45 37 -86 66 -41 30 -73 56 -71 58 2
2 31 -11 65 -27 69 -35 83 -34 20 1 l-42 23 94 6 94 6 -105 0 c-112 1 -140 7
-140 29 0 12 36 14 200 14 110 0 200 -3 200 -7z m340 -119 c0 -116 -1 -126
-17 -119 -53 22 -341 127 -360 132 -13 3 -23 7 -23 10 0 2 19 21 41 41 23 20
47 42 53 49 8 9 56 12 159 13 l147 0 0 -126z m194 109 c-4 -10 -24 -62 -45
-115 -22 -53 -39 -100 -39 -105 1 -11 32 53 54 109 9 26 22 50 27 53 5 4 9
-53 9 -139 l0 -146 -49 0 -49 0 5 41 c4 29 2 44 -8 50 -8 5 -9 9 -4 9 6 0 9
48 7 130 l-3 130 50 0 c44 0 50 -2 45 -17z m-5994 -35 l50 -33 0 -132 0 -133
-50 0 -50 0 0 149 c0 82 -3 156 -6 165 -9 23 0 20 56 -16z m1029 -41 c32 -30
51 -56 51 -70 0 -21 -5 -22 -75 -24 l-75 -3 0 53 c0 50 22 102 40 95 4 -2 31
-25 59 -51z m-711 -80 c9 -10 5 -13 -20 -15 -44 -3 -122 -43 -126 -64 -3 -14
7 -11 52 13 64 35 102 45 103 26 1 -6 4 -54 8 -104 l8 -93 -127 0 c-69 0 -126
3 -125 8 0 4 20 23 44 42 24 19 44 39 44 43 1 5 -17 -6 -39 -23 l-40 -32 1 49
c1 30 3 40 7 28 16 -46 54 -17 56 43 1 20 3 63 4 94 l2 57 68 -30 c37 -17 73
-36 80 -42z m4510 63 c68 0 82 -3 82 -16 0 -14 -14 -15 -105 -12 -95 3 -105 5
-105 22 0 14 5 17 23 12 12 -3 59 -6 105 -6z m1032 -65 c0 -53 -3 -63 -15 -59
-11 4 -15 21 -15 58 0 36 3 47 10 36 8 -12 10 -11 10 8 0 12 2 22 5 22 3 0 5
-29 5 -65z m-5440 15 c0 -25 -4 -30 -25 -30 -20 0 -25 5 -25 24 0 22 10 30 43
35 4 0 7 -12 7 -29z m770 -45 c0 -16 -3 -47 -7 -69 l-6 -38 -23 53 c-32 74
-31 86 6 85 26 -1 30 -5 30 -31z m-1290 -57 c0 -27 -5 -48 -10 -48 -15 0 -121
55 -148 76 -23 19 -22 19 67 19 l91 0 0 -47z m520 12 c0 -36 -2 -40 -25 -40
-22 0 -25 4 -25 40 0 36 3 40 25 40 23 0 25 -4 25 -40z m660 -65 c0 -62 -4
-105 -10 -105 -5 0 -12 10 -15 23 -44 193 -44 187 -5 187 l30 0 0 -105z m-218
87 c13 -5 -4 -19 -68 -56 l-86 -48 -87 37 c-47 21 -102 46 -121 56 l-35 18
190 0 c105 0 198 -3 207 -7z m148 -14 c0 -13 9 -57 20 -98 11 -41 20 -76 20
-77 0 -7 -97 -2 -108 6 -10 6 -12 33 -11 99 l3 92 38 0 c33 0 38 -3 38 -22z
m-365 -77 l50 -22 -30 -26 -30 -25 38 22 38 22 57 -23 57 -24 -45 -7 c-25 -3
-105 -7 -177 -7 l-133 -1 0 84 0 85 63 -28 c34 -16 85 -38 112 -50z m509 22
c9 -26 16 -68 16 -94 0 -41 -2 -47 -19 -42 -20 5 -31 55 -31 145 0 59 12 55
34 -9z m-274 -28 c0 -41 -2 -75 -5 -75 -2 0 -28 9 -57 21 -29 12 -64 25 -78
31 -23 9 -22 11 40 44 35 18 68 38 74 44 21 21 26 8 26 -65z m4985 13 c-2 -24
-4 -46 -4 -50 -1 -5 -7 -8 -15 -8 -10 0 -14 14 -14 50 -1 42 2 50 18 50 16 0
18 -6 15 -42z m-5435 -58 c0 -38 -2 -40 -30 -40 -28 0 -30 2 -30 40 0 38 2 40
30 40 28 0 30 -2 30 -40z m-430 -3 c0 -18 -21 -37 -41 -37 -12 0 -15 6 -11 25
3 18 11 25 28 25 13 0 24 -6 24 -13z m60 -2 c0 -8 -7 -15 -15 -15 -16 0 -20
12 -8 23 11 12 23 8 23 -8z m278 -104 c4 -34 -3 -37 -57 -21 -19 5 -37 8 -39
5 -4 -4 78 -30 89 -27 4 1 9 -9 11 -22 4 -21 -5 -30 -79 -71 -47 -27 -90 -44
-99 -41 -8 3 -13 2 -10 -2 3 -5 -8 -16 -24 -25 l-29 -17 -3 119 -3 120 80 9
c44 5 98 8 120 7 37 -2 40 -5 43 -34z m-302 23 c21 -6 22 -12 23 -138 l2 -133
-55 -41 c-30 -23 -58 -42 -61 -42 -3 0 -5 18 -5 40 0 31 4 40 18 40 16 1 16 1
0 14 -15 11 -18 31 -18 133 0 66 3 123 7 126 8 8 60 9 89 1z m394 -34 c0 -22
-3 -40 -7 -40 -5 0 -18 -3 -30 -6 -21 -6 -23 -3 -23 40 0 44 1 46 30 46 28 0
30 -2 30 -40z m179 36 c-2 -2 -34 -16 -71 -30 l-68 -25 0 29 0 30 72 0 c39 0
69 -2 67 -4z m-1035 -153 c4 -32 5 -143 2 -248 -5 -164 -8 -191 -23 -202 -9
-7 -20 -13 -25 -13 -10 0 -10 97 -1 338 6 164 8 182 24 182 13 0 18 -12 23
-57z m4694 -399 l-5 -76 36 5 c104 16 181 19 215 7 37 -12 67 -52 65 -87 0
-15 -2 -15 -11 4 -18 37 -56 45 -200 41 l-133 -3 -3 70 c-4 84 3 115 25 115
13 0 15 -11 11 -76z m-2161 15 c38 -14 73 -48 73 -71 0 -18 -1 -18 -21 0 -27
26 -62 32 -178 32 -98 0 -125 7 -113 27 12 19 196 28 239 12z"/>
<path d="M6413 4773 c9 -2 23 -2 30 0 6 3 -1 5 -18 5 -16 0 -22 -2 -12 -5z"/>
<path d="M4110 4886 c0 -3 15 -15 33 -27 23 -17 28 -18 18 -6 -14 18 -51 42
-51 33z"/>
<path d="M4190 4822 c6 -13 14 -21 18 -18 3 4 -2 14 -12 24 -18 16 -18 16 -6
-6z"/>
<path d="M4135 4475 c-16 -14 -25 -25 -19 -25 6 0 21 11 34 25 30 32 24 31
-15 0z"/>
<path d="M4178 4443 c6 -2 18 -2 25 0 6 3 1 5 -13 5 -14 0 -19 -2 -12 -5z"/>
<path d="M4142 4311 c-11 -6 -10 -10 4 -15 9 -3 19 -4 22 -1 3 3 0 5 -7 5 -7
0 -9 5 -6 10 7 12 4 12 -13 1z"/>
<path d="M4190 4310 c-9 -6 -10 -10 -3 -10 6 0 15 5 18 10 8 12 4 12 -15 0z"/>
<path d="M4158 4255 c-49 -45 -33 -46 18 0 21 19 35 34 29 34 -5 0 -27 -15
-47 -34z"/>
<path d="M4130 3910 c-9 -6 -10 -10 -3 -10 6 0 15 5 18 10 8 12 4 12 -15 0z"/>
<path d="M1348 3003 c7 -3 16 -2 19 1 4 3 -2 6 -13 5 -11 0 -14 -3 -6 -6z"/>
<path d="M2252 2800 c0 -19 2 -27 5 -17 2 9 2 25 0 35 -3 9 -5 1 -5 -18z"/>
<path d="M1952 2533 c-29 -14 -51 -27 -49 -30 3 -2 31 9 63 26 71 36 60 39
-14 4z"/>
<path d="M2225 2540 c-3 -5 -1 -10 4 -10 6 0 11 5 11 10 0 6 -2 10 -4 10 -3 0
-8 -4 -11 -10z"/>
<path d="M1925 2430 c-13 -6 -15 -9 -5 -9 8 0 22 4 30 9 18 12 2 12 -25 0z"/>
<path d="M6690 2506 c0 -2 9 -6 20 -9 11 -3 18 -1 14 4 -5 9 -34 13 -34 5z"/>
<path d="M6774 2365 c60 -30 111 -53 113 -51 5 5 -199 106 -212 106 -5 -1 39
-25 99 -55z"/>
<path d="M6676 2381 c12 -13 376 -182 381 -178 2 2 -34 21 -79 42 -46 21 -132
62 -191 92 -108 53 -129 61 -111 44z"/>
<path d="M6693 2325 c0 -8 6 -16 13 -19 7 -3 10 2 7 15 -6 22 -20 26 -20 4z"/>
<path d="M6920 2295 c0 -2 18 -14 40 -25 22 -11 40 -18 40 -15 0 2 -18 14 -40
25 -22 11 -40 18 -40 15z"/>
<path d="M7030 2236 c0 -2 7 -7 16 -10 8 -3 12 -2 9 4 -6 10 -25 14 -25 6z"/>
<path d="M1643 2319 c-59 -41 -54 -48 5 -8 58 40 57 39 46 39 -5 -1 -28 -14
-51 -31z"/>
<path d="M1580 2090 c8 -5 20 -10 25 -10 6 0 3 5 -5 10 -8 5 -19 10 -25 10 -5
0 -3 -5 5 -10z"/>
<path d="M4072 5640 c0 -14 2 -19 5 -12 2 6 2 18 0 25 -3 6 -5 1 -5 -13z"/>
<path d="M4057 5589 c-9 -36 -47 -81 -63 -75 -8 3 -13 0 -11 -6 1 -7 -5 -13
-13 -14 -8 0 -20 -2 -26 -2 -7 -1 -14 -11 -17 -23 -5 -20 -5 -20 21 -3 83 52
130 106 119 137 -2 7 -7 0 -10 -14z"/>
<path d="M2902 5580 c0 -14 2 -19 5 -12 2 6 2 18 0 25 -3 6 -5 1 -5 -13z"/>
<path d="M3746 5443 c-6 -14 -5 -15 5 -6 7 7 10 15 7 18 -3 3 -9 -2 -12 -12z"/>
<path d="M3728 5413 c34 -2 88 -2 120 0 31 2 3 3 -63 3 -66 0 -92 -1 -57 -3z"/>
<path d="M2549 5383 c-11 -15 -11 -16 1 -5 21 18 25 16 45 -28 10 -22 20 -38
22 -36 7 6 -36 86 -46 86 -5 0 -15 -8 -22 -17z"/>
<path d="M3192 5327 c-9 -10 0 -25 38 -62 28 -27 50 -44 50 -37 0 6 -9 16 -19
22 -11 5 -30 24 -42 41 -18 26 -19 33 -8 40 8 5 9 9 3 9 -6 0 -16 -6 -22 -13z"/>
<path d="M2620 5293 c0 -13 27 -49 33 -43 3 3 -3 16 -14 29 -10 13 -19 19 -19
14z"/>
<path d="M4203 5293 c9 -2 23 -2 30 0 6 3 -1 5 -18 5 -16 0 -22 -2 -12 -5z"/>
<path d="M2910 5289 c0 -3 11 -20 25 -39 14 -19 25 -30 25 -24 -1 10 -50 73
-50 63z"/>
<path d="M4273 5283 c15 -2 39 -2 55 0 15 2 2 4 -28 4 -30 0 -43 -2 -27 -4z"/>
<path d="M3151 5264 c0 -11 3 -14 6 -6 3 7 2 16 -1 19 -3 4 -6 -2 -5 -13z"/>
<path d="M3362 5255 c0 -16 2 -22 5 -12 2 9 2 23 0 30 -3 6 -5 -1 -5 -18z"/>
<path d="M3400 5274 c0 -16 75 -94 91 -94 7 0 2 8 -11 17 -14 9 -30 24 -37 32
-35 47 -42 55 -43 45z"/>
<path d="M3729 5249 c-12 -7 -12 -9 1 -10 52 -5 78 -3 70 5 -12 12 -55 16 -71
5z"/>
<path d="M1702 5225 c0 -16 2 -22 5 -12 2 9 2 23 0 30 -3 6 -5 -1 -5 -18z"/>
<path d="M2318 5213 c12 -2 32 -2 45 0 12 2 2 4 -23 4 -25 0 -35 -2 -22 -4z"/>
<path d="M3148 5213 c7 -3 16 -2 19 1 4 3 -2 6 -13 5 -11 0 -14 -3 -6 -6z"/>
<path d="M3336 5205 c-16 -12 -17 -15 -4 -15 9 0 18 7 22 15 7 18 6 18 -18 0z"/>
<path d="M4020 5216 c0 -2 8 -10 18 -17 15 -13 16 -12 3 4 -13 16 -21 21 -21
13z"/>
<path d="M3223 5203 c9 -2 23 -2 30 0 6 3 -1 5 -18 5 -16 0 -22 -2 -12 -5z"/>
<path d="M3288 5203 c7 -3 16 -2 19 1 4 3 -2 6 -13 5 -11 0 -14 -3 -6 -6z"/>
<path d="M3850 5191 c0 -5 -10 -12 -22 -14 -15 -3 -12 -4 8 -4 22 1 30 5 27
14 -6 15 -13 17 -13 4z"/>
<path d="M3588 5183 c6 -2 18 -2 25 0 6 3 1 5 -13 5 -14 0 -19 -2 -12 -5z"/>
<path d="M4060 5165 c0 -8 4 -15 10 -15 5 0 7 7 4 15 -4 8 -8 15 -10 15 -2 0
-4 -7 -4 -15z"/>
<path d="M4332 5150 c0 -14 2 -19 5 -12 2 6 2 18 0 25 -3 6 -5 1 -5 -13z"/>
<path d="M1704 4940 c0 -124 2 -174 3 -112 2 61 2 163 0 225 -1 61 -3 11 -3
-113z"/>
<path d="M2068 5143 c6 -2 18 -2 25 0 6 3 1 5 -13 5 -14 0 -19 -2 -12 -5z"/>
<path d="M5573 4940 c0 -25 2 -35 4 -22 2 12 2 32 0 45 -2 12 -4 2 -4 -23z"/>
<path d="M3507 4863 c-4 -3 -7 -13 -7 -22 0 -14 2 -14 10 -1 9 13 11 13 20 0
5 -8 10 -10 10 -4 0 15 -25 36 -33 27z"/>
<path d="M3775 4770 c-27 -27 -55 -50 -63 -50 -7 0 -11 -4 -8 -9 8 -12 -79
-91 -101 -92 -10 0 -13 -3 -6 -5 22 -9 57 17 136 102 44 46 87 84 96 84 22 0
41 -19 41 -42 0 -24 -78 -107 -154 -165 -34 -25 -61 -50 -61 -57 0 -6 13 -13
30 -14 26 -3 40 8 123 95 52 54 102 109 110 122 15 22 14 25 -16 52 -46 41
-70 37 -127 -21z"/>
<path d="M3980 4716 c0 -2 11 -6 25 -8 13 -3 22 -1 19 3 -5 9 -44 13 -44 5z"/>
<path d="M1677 4693 c-12 -12 -7 -60 7 -72 31 -26 67 20 46 59 -10 19 -40 27
-53 13z m41 -35 c-5 -34 -38 -37 -38 -4 0 20 5 26 21 26 15 0 20 -5 17 -22z"/>
<path d="M3994 4538 l-19 -23 23 19 c12 11 22 21 22 23 0 8 -8 2 -26 -19z"/>
<path d="M2021 3975 l1 -275 27 1 c17 1 20 3 9 6 -10 2 -18 8 -18 12 0 9 202
111 219 111 6 0 11 4 11 9 0 5 9 7 20 4 14 -4 20 -1 18 7 -3 12 77 42 87 32
10 -10 5 82 -10 178 -8 52 -15 116 -15 143 l0 47 -176 0 -175 0 2 -275z"/>
<path d="M7643 4043 l2 -32 27 26 c31 29 30 40 0 24 -15 -8 -22 -8 -25 2 -3 6
-4 -2 -4 -20z"/>
<path d="M7717 3948 c-13 -48 -5 -108 14 -108 11 0 12 101 0 118 -6 10 -10 8
-14 -10z"/>
<path d="M8410 3856 c0 -8 5 -18 10 -21 6 -3 10 1 10 9 0 8 -4 18 -10 21 -5 3
-10 -1 -10 -9z"/>
<path d="M3591 3563 c2 -121 15 -398 17 -361 3 36 38 54 122 62 36 4 71 7 78
8 6 1 12 6 12 11 0 5 7 7 15 3 21 -8 45 3 47 23 1 9 4 -15 8 -54 4 -44 7 18 8
167 l2 237 -155 0 -155 1 1 -97z"/>
<path d="M4196 3633 c5 -5 12 -12 16 -18 4 -6 8 -2 8 8 0 9 -7 17 -17 17 -9 0
-12 -3 -7 -7z"/>
<path d="M4139 3599 c14 -5 30 -13 36 -17 6 -4 2 1 -8 11 -11 9 -27 17 -36 16
-10 0 -7 -4 8 -10z"/>
<path d="M1040 3485 c0 -11 12 -15 45 -15 33 0 45 4 45 15 0 11 -12 15 -45 15
-33 0 -45 -4 -45 -15z"/>
<path d="M4127 3249 c7 -7 15 -10 18 -7 3 3 -2 9 -12 12 -14 6 -15 5 -6 -5z"/>
<path d="M3891 3164 c0 -11 3 -14 6 -6 3 7 2 16 -1 19 -3 4 -6 -2 -5 -13z"/>
<path d="M8775 3099 c-4 -6 -5 -12 -2 -15 2 -3 7 2 10 11 7 17 1 20 -8 4z"/>
<path d="M4230 3043 c0 -17 -6 -33 -12 -36 -7 -3 -3 -4 9 -4 19 1 21 5 16 32
-8 41 -13 44 -13 8z"/>
<path d="M4530 2726 l0 -154 -77 -75 c-43 -41 -105 -97 -137 -124 -102 -84
-113 -96 -40 -44 39 28 77 57 84 66 7 8 17 12 23 8 5 -3 7 -1 3 5 -13 21 16
24 37 4 l20 -21 38 31 c22 17 39 36 39 41 0 6 -10 1 -23 -11 -13 -12 -27 -19
-32 -15 -4 5 -5 3 -1 -4 11 -20 -14 -26 -35 -7 -22 20 -19 25 52 85 l49 41 0
-36 c0 -25 -4 -34 -13 -30 -8 3 -20 -3 -28 -13 -13 -16 -12 -17 3 -5 29 23 38
4 40 -76 l1 -77 7 75 c12 129 12 490 0 490 -6 0 -10 -55 -10 -154z"/>
<path d="M7880 2771 c0 -15 6 -21 21 -21 14 0 19 5 17 17 -5 26 -38 29 -38 4z"/>
<path d="M6748 2743 c12 -2 30 -2 40 0 9 3 -1 5 -23 4 -22 0 -30 -2 -17 -4z"/>
<path d="M7940 2721 c0 -5 7 -15 17 -22 15 -13 15 -12 4 9 -12 23 -21 28 -21
13z"/>
<path d="M3550 2498 c0 -101 5 -190 10 -198 7 -11 10 -7 10 18 0 17 5 33 10
34 6 0 16 1 23 2 9 1 13 -38 17 -149 5 -115 6 -77 8 163 1 220 -1 312 -9 312
-7 0 -10 -48 -7 -155 2 -114 0 -155 -9 -155 -6 0 -17 -2 -25 -5 -11 -4 -12 25
-10 155 2 107 -1 160 -8 160 -6 0 -10 -62 -10 -182z"/>
<path d="M6765 2650 c3 -5 8 -10 11 -10 2 0 4 5 4 10 0 6 -5 10 -11 10 -5 0
-7 -4 -4 -10z"/>
<path d="M8439 2633 c-35 -40 -80 -73 -90 -67 -6 3 -10 -2 -8 -12 1 -11 -3
-32 -9 -47 -17 -40 -15 -43 12 -15 34 33 116 140 116 150 0 12 -4 10 -21 -9z"/>
<path d="M1031 2474 c0 -11 3 -14 6 -6 3 7 2 16 -1 19 -3 4 -6 -2 -5 -13z"/>
<path d="M7861 2485 c-1 -15 50 -167 55 -162 2 2 -9 41 -25 88 -16 46 -30 80
-30 74z"/>
<path d="M8306 2443 c-6 -14 -5 -15 5 -6 7 7 10 15 7 18 -3 3 -9 -2 -12 -12z"/>
<path d="M7820 2425 c0 -5 5 -17 10 -25 5 -8 10 -10 10 -5 0 6 -5 17 -10 25
-5 8 -10 11 -10 5z"/>
<path d="M4372 2353 c-28 -21 -74 -54 -101 -73 -27 -19 -48 -37 -46 -38 4 -4
205 137 205 143 0 9 -6 5 -58 -32z"/>
<path d="M7840 2375 c0 -5 5 -17 10 -25 5 -8 10 -10 10 -5 0 6 -5 17 -10 25
-5 8 -10 11 -10 5z"/>
<path d="M1032 2350 c0 -14 2 -19 5 -12 2 6 2 18 0 25 -3 6 -5 1 -5 -13z"/>
<path d="M7512 2300 c0 -19 2 -27 5 -17 2 9 2 25 0 35 -3 9 -5 1 -5 -18z"/>
<path d="M7864 2320 c9 -32 39 -101 43 -97 2 3 -8 29 -22 58 -14 30 -23 47
-21 39z"/>
<path d="M5713 2185 c0 -44 2 -61 4 -37 2 23 2 59 0 80 -2 20 -4 1 -4 -43z"/>
<path d="M3632 1990 c0 -14 2 -19 5 -12 2 6 2 18 0 25 -3 6 -5 1 -5 -13z"/>
<path d="M1070 1695 c0 -12 15 -15 79 -15 58 0 82 4 91 15 11 13 1 15 -79 15
-74 0 -91 -3 -91 -15z"/>
</g>
</svg>
